<svg xmlns="http://www.w3.org/2000/svg" viewBox="0 0 27.42 26.02"><path d="M27.42 7l-4 12H9.32l.47 2h10.72a2.17 2.17 0 011 .2 2.75 2.75 0 01.8.56 2.26 2.26 0 01.52.79 2.68 2.68 0 010 1.93 2.18 2.18 0 01-.52.79 2.75 2.75 0 01-.8.56 2.18 2.18 0 01-1 .21 2.42 2.42 0 01-1-.21 2 2 0 01-.76-.56 2.77 2.77 0 01-.56-.79 2.36 2.36 0 01-.06-1.75 2.52 2.52 0 01.39-.68h-7a2.52 2.52 0 01.39.68 2.36 2.36 0 01-.06 1.75 2.77 2.77 0 01-.56.79 2.71 2.71 0 01-.79.56 2.22 2.22 0 01-1 .21 2.18 2.18 0 01-1-.21 2.75 2.75 0 01-.8-.56 2.55 2.55 0 01-.55-.79 2.18 2.18 0 01-.21-1 2.09 2.09 0 01.15-.79A3.7 3.7 0 017.5 22a2.5 2.5 0 01.59-.52 2.74 2.74 0 01.7-.36L3.93 1H0V0h4.69l1.7 7zM9.08 18h13.54L26 8H6.68zM11 23.5a1.34 1.34 0 00-.12-.56 1.82 1.82 0 00-.35-.5 1.45 1.45 0 00-.47-.29 1.56 1.56 0 00-.57-.15 1.3 1.3 0 00-.55.12 2.25 2.25 0 00-.5.29 2.55 2.55 0 00-.3.5 1.51 1.51 0 00-.14.59 1.7 1.7 0 00.11.58 1.36 1.36 0 00.3.47 1.52 1.52 0 00.5.35 1.3 1.3 0 00.55.12 1.56 1.56 0 00.59-.12 1.1 1.1 0 00.47-.35 1.12 1.12 0 00.35-.47 1.51 1.51 0 00.13-.58zm11 0a1.51 1.51 0 00-.11-.56 2.55 2.55 0 00-.3-.5 2.25 2.25 0 00-.5-.29 1.3 1.3 0 00-.55-.12 1.49 1.49 0 00-.62.12 1.53 1.53 0 00-.44.29 1.82 1.82 0 00-.35.5 1.34 1.34 0 00-.12.56 1.51 1.51 0 00.12.58 1.12 1.12 0 00.35.47 1.14 1.14 0 00.44.35 1.49 1.49 0 00.62.12 1.3 1.3 0 00.55-.12 1.52 1.52 0 00.5-.35 1.36 1.36 0 00.3-.47 1.7 1.7 0 00.11-.58z" fill="#fff"/></svg>