<svg xmlns="http://www.w3.org/2000/svg" viewBox="0 0 24.96 22.38"><path d="M18 0a6.69 6.69 0 012.72.56 7.31 7.31 0 012.2 1.49 6.44 6.44 0 011.52 2.2A6.84 6.84 0 0125 7a6.76 6.76 0 01-.15 1.41 8.4 8.4 0 01-.38 1.35 11.64 11.64 0 01-.67 1.17 5.05 5.05 0 01-.91 1L12.48 22.38 1.93 11.78a6.74 6.74 0 01-.82-1 9.71 9.71 0 01-.64-1.2 5.56 5.56 0 01-.35-1.29A7.53 7.53 0 010 7a7 7 0 01.53-2.75 6.44 6.44 0 011.52-2.2A7.31 7.31 0 014.25.56 6.69 6.69 0 017 0a7.16 7.16 0 011.58.18 6.34 6.34 0 011.5.52 7.62 7.62 0 011.32.85 5.9 5.9 0 011.08 1.15 5.9 5.9 0 011.08-1.15A7.62 7.62 0 0114.88.7a6.34 6.34 0 011.5-.52A7.16 7.16 0 0118 0zm0 1a5.87 5.87 0 00-1.79.26 6.14 6.14 0 00-1.56.74 7.16 7.16 0 00-1.26 1.2 6 6 0 00-.91 1.5 6 6 0 00-.91-1.5A7.16 7.16 0 0010.31 2a6.14 6.14 0 00-1.55-.73A5.87 5.87 0 007 1a5.78 5.78 0 00-2.31.46 6.43 6.43 0 00-1.94 1.29 6.43 6.43 0 00-1.29 1.91A5.78 5.78 0 001 7a5.79 5.79 0 00.11 1.17 8.69 8.69 0 00.3 1.12 6 6 0 00.55 1 5.2 5.2 0 00.68.82L12.48 21l9.67-9.73a8 8 0 00.76-.88 5.51 5.51 0 00.59-1 7.87 7.87 0 00.35-1.18A6.12 6.12 0 0024 7a5.78 5.78 0 00-.46-2.31 6.43 6.43 0 00-1.29-1.91 6.43 6.43 0 00-1.95-1.32A5.78 5.78 0 0018 1z" fill="#fff"/></svg>