<svg xmlns="http://www.w3.org/2000/svg" viewBox="0 0 24.02 24.02"><path d="M12 0a11.66 11.66 0 014.66.94 12 12 0 013.84 2.58 12.19 12.19 0 012.58 3.83A11.86 11.86 0 0124 12a11.82 11.82 0 01-.93 4.66 12 12 0 01-6.42 6.42A11.82 11.82 0 0112 24a11.86 11.86 0 01-4.66-.93 12.19 12.19 0 01-3.83-2.58 12 12 0 01-2.57-3.82A11.66 11.66 0 010 12a11.69 11.69 0 01.94-4.65A12.06 12.06 0 017.35.94 11.69 11.69 0 0112 0zm0 23a10.57 10.57 0 004.28-.88 11.94 11.94 0 003.52-2.32 11.94 11.94 0 002.35-3.51 10.85 10.85 0 000-8.56 12.07 12.07 0 00-2.35-3.51 11.72 11.72 0 00-3.51-2.34A10.41 10.41 0 0012 1a10.44 10.44 0 00-4.28.88 11.85 11.85 0 00-3.5 2.34 11.85 11.85 0 00-2.34 3.51A10.44 10.44 0 001 12a10.41 10.41 0 00.88 4.28 11.72 11.72 0 002.34 3.52 12.07 12.07 0 003.51 2.35A10.61 10.61 0 0012 23zm0-19h1v10H6v-1h6z" fill="#fff"/></svg>