<svg aria-hidden="true" style="position:absolute;width:0;height:0" xmlns="http://www.w3.org/2000/svg" overflow="hidden"><defs><symbol id="icon-phone" viewBox="0 0 29 32"><path d="M19.82 31.341a21.298 21.298 0 01-3.76-2.042l.074.047a31.188 31.188 0 01-4.214-3.377l.012.011a32.792 32.792 0 01-4.135-4.745l-.067-.099c-1.3-1.745-2.386-3.33-3.419-4.861a33.199 33.199 0 01-2.278-3.963l-.09-.204A22.23 22.23 0 01.529 8.712l-.046-.165a9.677 9.677 0 01-.48-2.763v-.015a4.377 4.377 0 01.331-1.81l-.011.029c.193-.51.439-.951.74-1.349l-.01.013c.298-.306.611-.591.942-.857l.02-.016.837-.605.214-.125A4.47 4.47 0 014.943.216l.028-.004a8.933 8.933 0 011.544-.213l.023-.001a1.879 1.879 0 011.269.377L7.802.372c.254.245.463.534.616.855l.008.018c.125.232.552 1.122 1.282 2.689s1.122 2.457 1.211 2.742c.097.192.16.416.178.653v.006a2.433 2.433 0 01-.002.744l.002-.014a4.243 4.243 0 01-.42.854l.01-.017a2.374 2.374 0 01-.564.619l-.006.004h-.125c-.354.24-.662.48-.953.738l.009-.008a1.517 1.517 0 00-.587 1.007l-.001.008a.949.949 0 00.002.595l-.002-.007c.101.242.252.445.443.603l.002.002c.427.552.997 1.318 1.781 2.262s1.496 1.923 2.297 2.885 1.514 1.781 2.19 2.653c.43.532.873 1.009 1.346 1.453l.007.007c.158.161.34.297.54.404l.012.006c.16.085.349.137.55.142h.002a1.248 1.248 0 00.632-.002l-.009.002c.196-.052.365-.151.499-.285a8.63 8.63 0 00.9-.881l.008-.009c.119-.108.254-.203.399-.28l.011-.005a1.764 1.764 0 01.985-.213h-.006c.31.01.602.075.872.184l-.017-.006c.335.133.623.282.892.457l-.02-.012c.801.516 2.457 1.638 5.022 3.348.296.274.518.623.637 1.017l.004.016a2.231 2.231 0 01-.29 1.79l.005-.009a9.227 9.227 0 01-.888 1.374l.015-.02a9.756 9.756 0 01-1.345 1.488l-.009.008a8.66 8.66 0 01-1.595 1.153l-.043.022a3.404 3.404 0 01-1.781.499 7.781 7.781 0 01-2.741-.589l.052.019zM5.342 1.353a4.38 4.38 0 00-1.514.598l.018-.011-.285.214-.766.516c-.301.257-.56.55-.774.875l-.01.015a4.053 4.053 0 00-.577.867l-.011.024c-.158.375-.25.811-.25 1.269v.052-.003c.02.97.201 1.891.517 2.747l-.019-.058a23.419 23.419 0 001.451 3.425l-.062-.131a42.192 42.192 0 002.381 4.136l-.102-.165a97.778 97.778 0 003.259 4.719 38.731 38.731 0 004.202 4.684l.018.017a32.354 32.354 0 003.883 3.171l.106.07a18.266 18.266 0 003.259 1.736l.124.045a6.73 6.73 0 002.31.586l.023.001a2.721 2.721 0 001.365-.416l-.011.007a9.064 9.064 0 001.363-.988l-.01.009c.393-.389.756-.808 1.084-1.253l.02-.029c.28-.353.534-.749.747-1.171l.018-.04a1.286 1.286 0 00.141-.989l.002.009a1.092 1.092 0 00-.215-.411l.001.002q-.321-.16-2.101-1.389l-2.849-1.905a2.191 2.191 0 00-.537-.315l-.015-.005a1.973 1.973 0 00-.563.001l.011-.001a.847.847 0 00-.434.001l.006-.001-.214.125-.303.321-.659.588a2.472 2.472 0 01-.891.476l-.018.004a2.04 2.04 0 01-.994-.003l.014.003a2.902 2.902 0 01-1.017-.203l.02.007a2.797 2.797 0 01-.943-.64l-.001-.001c-.232-.232-.694-.748-1.389-1.585l-2.262-2.671c-.784-1.015-1.567-1.994-2.333-2.956s-1.336-1.674-1.781-2.19a3.018 3.018 0 01-.476-.976l-.005-.021a3.15 3.15 0 01.003-1.105l-.003.019a2.7 2.7 0 01.327-.849l-.007.012c.159-.262.329-.489.52-.698l-.003.003c.167-.24.361-.445.582-.619l.006-.005.588-.427h.142c.253-.181.418-.471.427-.8v-.001a2.029 2.029 0 00-.001-.617l.001.011c0-.231-.499-1.104-1.193-2.636S7.508 2.012 7.365 1.781a1.037 1.037 0 00-.25-.464l.001.001a.815.815 0 00-.592-.142l.004-.001a8.525 8.525 0 00-1.25.189l.057-.011z"/></symbol><symbol id="icon-add-to-cart" viewBox="0 0 34 32"><path fill="var(--color2, #fff)" d="M33.722 8.609l-4.919 14.758h-17.34l.578 2.46h13.184a2.652 2.652 0 011.246.253l-.016-.007c.381.178.706.409.984.689.272.268.489.592.633.953l.007.019c.14.352.221.76.221 1.187s-.081.835-.229 1.209l.008-.022a2.691 2.691 0 01-.639.971l-.001.001a3.39 3.39 0 01-.963.68l-.021.009a2.638 2.638 0 01-1.151.259l-.083-.001h.004-.017a2.96 2.96 0 01-1.231-.266l.019.008a2.495 2.495 0 01-.932-.685l-.003-.004a3.421 3.421 0 01-.68-.951l-.009-.02a2.905 2.905 0 01-.068-2.172l-.006.02c.124-.32.286-.597.484-.842l-.005.006h-8.609c.194.24.356.516.472.815l.007.021c.109.293.172.631.172.984 0 .423-.09.825-.253 1.187l.007-.018c-.18.376-.411.697-.688.971-.274.279-.595.51-.951.68l-.02.009c-.34.164-.739.259-1.161.259l-.072-.001h.004l-.079.001c-.418 0-.814-.096-1.167-.266l.016.007a3.385 3.385 0 01-.984-.689 3.15 3.15 0 01-.668-.952l-.008-.02a2.638 2.638 0 01-.259-1.151l.001-.083v-.011c0-.345.068-.673.191-.973l-.006.017c.149-.324.317-.603.512-.86l-.008.011a3.08 3.08 0 01.713-.632l.012-.007c.248-.178.532-.328.837-.436l.024-.007L4.835 1.233H.002V.003H5.77l2.091 8.609zM11.167 22.137h16.652l4.157-12.298H8.216zm2.361 6.764v-.007c0-.247-.054-.482-.152-.692l.004.01a2.256 2.256 0 00-.431-.615 1.758 1.758 0 00-.566-.352l-.012-.004a1.878 1.878 0 00-.695-.184h-.011c-.243 0-.474.054-.681.152l.01-.004c-.235.1-.437.219-.621.361l.006-.005a3.11 3.11 0 00-.361.596l-.008.019a1.822 1.822 0 00-.172.723v.003c.003.257.053.502.14.728l-.005-.014c.087.225.212.418.369.578.17.18.375.325.603.426l.012.005c.197.093.428.148.671.148h.006c.262-.002.511-.056.738-.152l-.013.005c.234-.092.429-.24.576-.427l.002-.003c.189-.15.337-.345.427-.569l.003-.009c.096-.21.154-.454.16-.711v-.002zm13.528 0a1.857 1.857 0 00-.14-.701l.005.012a3.157 3.157 0 00-.374-.622l.005.007a2.778 2.778 0 00-.597-.35l-.018-.007a1.577 1.577 0 00-.671-.148h-.047c-.261 0-.509.054-.733.153l.012-.005a1.88 1.88 0 00-.542.358l.001-.001a2.262 2.262 0 00-.425.602l-.006.013c-.093.2-.148.435-.148.682v.007c.002.258.056.503.152.725l-.005-.012c.094.233.241.428.428.576l.003.002c.141.184.323.331.532.427l.009.004c.213.094.461.148.722.148h.043-.002.005c.243 0 .474-.054.681-.152l-.01.004c.24-.106.445-.251.614-.43l.001-.001c.157-.16.282-.353.365-.567l.004-.011c.083-.211.132-.456.135-.712v-.001z"/></symbol><symbol id="icon-comper-icon" viewBox="0 0 37 32"><path d="M30.043 18.987l6.587 6.587-6.587 6.499-1.037-1.022 4.79-4.79h-9.23L6.762 7.303H0V5.842h7.303l17.804 18.987h8.632l-4.791-4.703zm-16.694-1.271l1.11 1.022-7.157 7.449H-.001v-1.461h6.762zm5.141-3.344l-.964-1.022 7.04-7.507h9.231l-4.791-4.82L30.043.001 36.63 6.5l-6.587 6.645-1.037-1.11 4.79-4.732h-8.632z"/></symbol><symbol id="icon-decoration-icon-green" viewBox="0 0 350 32"><path fill="var(--color3, #1abc9c)" d="M0 27.733h349.867V32H0v-4.267zm0-19.2h349.867v14.933H0V8.533zM0 0h349.867v4.267H0V0z"/></symbol><symbol id="icon-decoration-icon-white" viewBox="0 0 350 32"><path fill="var(--color2, #fff)" d="M0 27.733h349.867V32H0v-4.267zm0-19.2h349.867v14.933H0V8.533zM0 0h349.867v4.267H0V0z"/></symbol><symbol id="icon-email" viewBox="0 0 50 32"><path d="M47.962 0H0v32h50.007V0zm-1.988 2.007l-19.32 19.301c-.427.411-1.009.665-1.651.665s-1.223-.253-1.651-.665l.001.001L4.033 2.008zM2.007 2.87l12.98 12.98-12.98 12.924V2.87zm1.594 27.198l12.811-12.793 5.533 5.533c.779.789 1.861 1.278 3.057 1.278s2.278-.489 3.057-1.278l5.534-5.534 12.811 12.793zM48 28.849L35.02 15.85 48 2.87z"/></symbol><symbol id="icon-favorit-icon" viewBox="0 0 36 32"><path d="M25.737 0h.058c1.386 0 2.703.295 3.892.825l-.061-.024a10.523 10.523 0 013.147 2.132l-.001-.001a9.25 9.25 0 012.151 3.085l.023.06a9.625 9.625 0 01.801 3.876v.059-.003a9.761 9.761 0 01-.226 2.08l.012-.064c-.145.743-.333 1.39-.571 2.013l.028-.082a16.266 16.266 0 01-.997 1.735l.039-.062a7.318 7.318 0 01-1.29 1.421l-.011.009-14.885 14.942L2.761 16.845a9.707 9.707 0 01-1.151-1.396l-.022-.034a13.369 13.369 0 01-.88-1.629l-.035-.087a7.687 7.687 0 01-.495-1.801l-.005-.044a10.484 10.484 0 01-.172-1.841v-.004L0 9.899C0 8.52.279 7.207.783 6.011l-.025.066a9.269 9.269 0 012.169-3.142l.004-.004A10.453 10.453 0 016.01.827l.066-.026a9.416 9.416 0 013.937-.8h-.005c.802.002 1.581.095 2.329.271l-.069-.014c.811.174 1.528.43 2.197.767l-.052-.024a10.82 10.82 0 011.908 1.232l-.021-.016a8.53 8.53 0 011.527 1.619l.017.025a8.496 8.496 0 011.529-1.632l.015-.012a10.83 10.83 0 011.826-1.187l.061-.029A8.83 8.83 0 0123.36.268l.06-.011A9.953 9.953 0 0125.701 0h.037-.002zm0 1.43h-.088c-.882 0-1.733.136-2.531.388l.059-.016a8.777 8.777 0 00-2.262 1.078l.032-.02a10.319 10.319 0 00-1.788 1.699l-.014.017a8.555 8.555 0 00-1.28 2.089l-.021.056a8.614 8.614 0 00-1.312-2.159l.011.014a10.347 10.347 0 00-1.775-1.697l-.027-.019a8.634 8.634 0 00-2.154-1.027l-.062-.017a8.213 8.213 0 00-2.516-.386h-.071a8.232 8.232 0 00-3.285.679l.053-.021A9.227 9.227 0 003.93 3.935l.002-.002a9.204 9.204 0 00-1.821 2.673l-.023.058a8.136 8.136 0 00-.658 3.352v-.006.066c0 .569.057 1.124.167 1.661l-.009-.053c.125.63.274 1.167.455 1.689l-.026-.087c.239.549.502 1.019.805 1.459l-.019-.029c.296.439.616.823.971 1.171l.001.001 14.07 14.141 13.827-13.912c.383-.383.739-.794 1.065-1.229l.021-.03c.311-.414.592-.884.823-1.381l.02-.049a10.58 10.58 0 00.487-1.613l.014-.075a8.485 8.485 0 00.214-1.719v-.082a8.232 8.232 0 00-.679-3.285l.021.053a9.253 9.253 0 00-1.846-2.733l.002.002a9.197 9.197 0 00-2.73-1.864l-.059-.023a8.125 8.125 0 00-3.231-.658h-.06.003z"/></symbol><symbol id="icon-icon01" viewBox="0 0 32 32"><path fill="var(--color3, #1abc9c)" d="M27.428 18.516c-.092.359-.179.693-.267 1.004a7.73 7.73 0 01-.359.99l.02-.05c-.131.271-.281.548-.436.839s-.325.591-.485.907l2.623 3.622-2.623 2.618-3.496-2.55-.873.485a8.05 8.05 0 01-.817.415l-.055.022c-.315.087-.63.189-.941.301s-.63.213-.941.301l-.625 4.582h-4.305l-.538-4.562a9.95 9.95 0 01-1.081-.308l.073.022c-.31-.111-.625-.238-.941-.369s-.616-.281-.907-.436a9.564 9.564 0 01-.875-.507l.037.022-3.428 2.618-2.623-2.618 2.555-3.486a6.636 6.636 0 01-.485-.839 8.876 8.876 0 01-.412-.843l-.024-.064a6.896 6.896 0 01-.327-.917l-.013-.053c-.087-.335-.179-.659-.267-.97l-4.591-.577v-4.296l4.572-.485a33.5 33.5 0 01.267-1.004c.113-.38.228-.692.361-.995l-.021.054c.131-.267.267-.548.402-.839.158-.325.319-.6.499-.861l-.014.022-2.502-3.539 2.623-2.618 3.559 2.482a6.99 6.99 0 01.802-.466l.042-.019c.291-.131.572-.267.839-.402.243-.098.557-.2.877-.286l.064-.014 1.008-.267.485-4.562h4.305l.538 4.562c.31.092.635.179.97.267.35.095.651.209.938.348l-.032-.014c.31.136.616.281.907.436l.907.485 3.428-2.55 2.623 2.618-2.555 3.423c.136.267.281.548.436.839s.305.591.441.902.257.64.369.97.209.684.301 1.038l4.572.402v4.296zm-26.42-1.454l3.428.339c0-.223 0-.485-.034-.708s-.039-.524-.039-.795 0-.524.034-.771.034-.485.034-.771l-3.428.402zM4.887 6.264L6.788 8.79c.155-.201.314-.38.484-.547l.001-.001 1.023-1.023c.16-.155.349-.32.572-.485L6.255 4.896zm1.368 20.572l2.473-1.881a3.89 3.89 0 01-.483-.434l-.002-.002-.441-.436-.485-.485a5.481 5.481 0 01-.428-.474l-.008-.011L5 25.663zm9.696-.606h.013c.733 0 1.449-.072 2.142-.21l-.069.012a11.533 11.533 0 001.922-.566l-.079.027a10.4 10.4 0 001.82-.993l-.036.023a10.88 10.88 0 003.852-4.59l.027-.069a12.97 12.97 0 00.522-1.848l.016-.091c.126-.608.199-1.308.199-2.024 0-1.448-.296-2.828-.831-4.08l.026.068c-1.069-2.496-3.015-4.445-5.441-5.492l-.067-.026a10.198 10.198 0 00-4.006-.805c-.724 0-1.43.074-2.112.215l.067-.012c-.758.154-1.408.34-2.037.569l.098-.031c-.689.291-1.279.614-1.831.988l.037-.024c-.59.405-1.107.835-1.581 1.309a10.545 10.545 0 00-2.272 3.292l-.026.068a9.323 9.323 0 00-.591 1.877l-.011.062a9.865 9.865 0 00-.204 2.011v.066c0 1.433.309 2.794.864 4.02l-.025-.061a10.909 10.909 0 002.254 3.287 10.424 10.424 0 003.225 2.19l.067.026c1.17.512 2.534.81 3.968.81h.085-.004zm1.145 4.563l.402-3.423c-.267 0-.529 0-.771.034s-.485.034-.776.034-.528 0-.771-.034-.485-.034-.776-.034l.402 3.423zM14.788 1.008l-.242 3.418c.223 0 .461 0 .708-.034s.48-.029.747-.029.485 0 .708.034.485.034.771.034l-.402-3.394zm10.827 3.879L23.06 6.788c.165.172.341.33.527.476l.011.008c.185.14.345.3.48.479l.004.006c.179.147.337.306.48.479l.005.006q.233.271.436.538l1.881-2.55zm1.343 20.674l-1.881-2.686a2.937 2.937 0 01-.437.573l-.485.485-.538.533c-.165.173-.34.332-.527.477l-.011.008 2.618 1.886zm3.878-10.802l-3.428-.402v.051c0 .242.012.48.037.715l-.002-.029c.022.207.034.446.034.689v.051-.003c0 .272 0 .528-.034.776s-.034.485-.034.703l3.447-.339z"/></symbol><symbol id="icon-icon02" viewBox="0 0 34 32"><path fill="var(--color3, #1abc9c)" d="M0 0h34.37v32H0zm32.978 30.59V1.411H1.393V30.59zM4.089 13.926H2.785V8.373h1.304v5.553zm0 9.778H2.785v-5.547h1.304v5.547zM5.481 4.148h23.324v23.704H5.481zm22.015 22.299V5.552H6.874v20.895zM17.185 9.701h.002c.857 0 1.671.183 2.406.513l-.037-.015a5.633 5.633 0 011.963 1.405l.005.005c.539.546.98 1.19 1.294 1.903l.016.041c.311.723.492 1.564.492 2.447s-.181 1.725-.508 2.489l.016-.041a6.378 6.378 0 01-1.31 1.944l.001-.001a5.601 5.601 0 01-1.931 1.396l-.036.014a5.785 5.785 0 01-2.369.498h-.06a5.677 5.677 0 01-2.272-.471l.037.014a6.667 6.667 0 01-1.885-1.191l.006.005a6.497 6.497 0 01-1.334-1.702l-.017-.034a5.33 5.33 0 01-.592-2.228v-.012H9.579v-1.345h1.47a5.41 5.41 0 01.607-2.27l-.014.03a6.524 6.524 0 011.391-1.73l.007-.006a6.638 6.638 0 011.835-1.169l.043-.016a5.705 5.705 0 012.268-.474h.001zm0 11.188h.035c.658 0 1.28-.153 1.833-.426l-.024.011a6.652 6.652 0 001.519-.996l-.008.007a5.334 5.334 0 001.053-1.543l.014-.034c.258-.561.409-1.217.409-1.908s-.151-1.347-.421-1.937l.012.029a5.337 5.337 0 00-1.068-1.577l.001.001a6.547 6.547 0 00-1.472-.972l-.039-.017a4.086 4.086 0 00-1.808-.415h-.036.002-.03c-.609 0-1.189.122-1.718.343l.029-.011a5.024 5.024 0 00-2.523 2.209l-.013.025a4.126 4.126 0 00-.491 1.644l-.001.015h4.741v1.327h-4.735c.049.615.226 1.18.503 1.681l-.011-.021a5.022 5.022 0 002.503 2.222l.033.012c.499.21 1.08.332 1.689.332h.025-.001z"/></symbol><symbol id="icon-icon03" viewBox="0 0 32 32"><path fill="var(--color3, #1abc9c)" d="M16 0h.053c4.407 0 8.398 1.78 11.294 4.66l-.001-.001a15.949 15.949 0 014.72 11.347c0 6.61-4.008 12.283-9.726 14.723l-.104.04c-1.815.782-3.927 1.237-6.146 1.237h-.096.005-.066l-.124.001c-2.196 0-4.286-.455-6.18-1.276l.101.039a16.178 16.178 0 01-5.072-3.418A15.963 15.963 0 01-.001 16.058v-.139c0-6.56 3.964-12.194 9.628-14.637l.103-.04C11.521.457 13.609 0 15.803 0l.137.001h-.007zM8.242 15.324c0-.599 0-1.187.077-1.764s.099-1.165.148-1.769.198-1.099.302-1.648a14.41 14.41 0 01.401-1.681l-.027.104c-.489-.125-.89-.254-1.28-.405l.077.026a20.288 20.288 0 01-1.126-.451c-.448-.171-.81-.336-1.161-.518l.062.029-1.126-.549a22.036 22.036 0 00-1.236 1.774l-.055.094a13.42 13.42 0 00-1.011 2.006l-.033.093a11.8 11.8 0 00-.663 2.212l-.013.079a17.777 17.777 0 00-.299 2.312l-.003.056zm0 1.352H1.275c.057.882.164 1.694.322 2.487l-.02-.119c.171.874.404 1.641.706 2.374l-.03-.082a13.74 13.74 0 001.079 2.165l-.035-.061a23.46 23.46 0 001.275 1.874l1.126-.549a10.11 10.11 0 011.023-.463l.076-.026c.352-.148.725-.302 1.126-.451.314-.123.715-.251 1.126-.357l.078-.017a13.003 13.003 0 01-.324-1.504l-.011-.084c-.104-.549-.203-1.099-.302-1.648s-.099-1.192-.148-1.769-.099-1.165-.099-1.769zm4.302-15.028c-.812.227-1.473.458-2.117.722l.128-.046c-.721.291-1.326.593-1.905.936l.064-.035a9.616 9.616 0 00-1.71 1.113l.018-.014c-.522.429-1.038.89-1.538 1.39.352.148.676.302.978.451s.626.302.978.451c.262.119.597.245.94.354l.071.019c.324.104.665.231 1.016.379.198-.604.412-1.176.637-1.731s.462-1.099.714-1.577.511-.874.786-1.275c.291-.425.6-.797.94-1.138zM5.495 26.291c.478.479.979.933 1.503 1.362l.036.028a8.968 8.968 0 001.641 1.075l.051.024c.513.307 1.115.606 1.741.858l.089.032c.516.218 1.177.448 1.854.643l.135.033a7.688 7.688 0 01-.924-1.075l-.016-.024c-.25-.355-.51-.771-.748-1.201l-.037-.073c-.253-.5-.489-1.049-.714-1.599s-.44-1.126-.637-1.731c-.352.104-.692.214-1.016.341a35.637 35.637 0 00-2.956 1.308zm9.829-16.753c-.401 0-.813 0-1.242-.038s-.835-.06-1.236-.11a9.833 9.833 0 01-1.348-.24l.068.014a9.248 9.248 0 00-1.146-.22l-.051-.005c-.104.451-.203.929-.302 1.429-.091.432-.17.97-.221 1.517l-.004.059c-.099.549-.176 1.099-.225 1.687s-.077 1.143-.077 1.692h5.786zm-5.786 7.143c0 .549.027 1.099.077 1.692s.126 1.137.225 1.687c.055.609.135 1.149.242 1.68l-.016-.098c.099.5.198.973.302 1.423.401-.099.797-.187 1.198-.264s.83-.137 1.28-.187.813-.088 1.236-.11.841-.038 1.242-.038v-5.791zm5.786-15.329a3.213 3.213 0 00-1.245.679l.004-.003a7.558 7.558 0 00-1.221 1.329l-.015.022c-.422.536-.81 1.139-1.136 1.778l-.029.062a12.45 12.45 0 00-.919 2.382l-.021.09c.352.099.714.187 1.099.258s.764.143 1.165.192.802.088 1.203.11.775.038 1.126.038zm0 22.384c-.352 0-.725 0-1.126.038s-.802.066-1.203.115a14.91 14.91 0 00-2.264.451c.259.936.579 1.746.974 2.512l-.034-.073c.355.702.742 1.305 1.183 1.864l-.018-.024c.365.51.772.953 1.226 1.343l.01.008c.345.304.761.537 1.219.67l.023.006zm1.352-15.494c.352 0 .725 0 1.099-.038s.802-.06 1.203-.11.714-.115 1.099-.192.802-.137 1.181-.209a22.585 22.585 0 00-1.039-2.506l.061.138a12.21 12.21 0 00-1.125-1.956l.026.039a6.447 6.447 0 00-1.224-1.304l-.012-.01a4.874 4.874 0 00-1.209-.702l-.033-.012zm0 1.274v5.808h5.709c0-.549 0-1.099-.071-1.692s-.104-1.137-.154-1.687a14.988 14.988 0 00-.242-1.674l.016.097a11.964 11.964 0 00-.398-1.514l.025.085q-.604.148-1.203.264c-.401.071-.802.137-1.203.187s-.813.088-1.236.11-.841.038-1.242.038zm0 12.924c.401 0 .813 0 1.242.038s.835.06 1.236.11.802.115 1.203.187.802.165 1.203.264c.132-.38.261-.858.361-1.346l.013-.077c.091-.433.17-.974.221-1.523l.004-.06c.049-.549.099-1.099.154-1.687s.071-1.137.071-1.692h-5.709zm0 8.186a4.779 4.779 0 001.251-.722l-.009.007a6.398 6.398 0 001.223-1.294l.013-.02c.395-.553.761-1.182 1.068-1.844l.03-.073c.31-.62.64-1.4.927-2.201l.051-.162c-.401-.099-.786-.187-1.165-.264s-.736-.137-1.099-.187-.802-.088-1.203-.115-.775-.038-1.099-.038zm9.84-24.917a20.198 20.198 0 00-1.503-1.362l-.036-.028a13.454 13.454 0 00-1.629-1.13l-.064-.035a41.286 41.286 0 00-1.857-.863 11.085 11.085 0 00-1.893-.627l-.079-.016c.292.336.579.705.846 1.089l.028.043c.275.401.549.824.791 1.275.271.448.525.967.731 1.511l.022.066c.198.549.396 1.126.599 1.731.352-.099.698-.214 1.049-.341s.703-.264 1.055-.412.61-.302.94-.451.648-.302 1-.451zm-7.06 24.637a27.527 27.527 0 001.951-.676c.768-.29 1.387-.567 1.989-.875l-.109.051a13.16 13.16 0 001.716-1.184l-.024.019a18.93 18.93 0 001.537-1.389l.001-.001c-.352-.148-.687-.302-1.011-.451s-.643-.302-.94-.451-.703-.286-1.055-.412-.698-.236-1.049-.341a86.432 86.432 0 01-.599 1.731 9.553 9.553 0 01-.777 1.62l.024-.044a15.74 15.74 0 01-.791 1.275c-.289.425-.572.792-.876 1.142l.013-.015zm4.209-15.022h7.06a18.98 18.98 0 00-.322-2.488l.02.12a12.356 12.356 0 00-.706-2.374l.03.082a15.567 15.567 0 00-1.089-2.209l.04.072a14.86 14.86 0 00-1.301-1.867l.021.026-1.099.549c-.297.154-.668.319-1.049.463l-.077.026-1.165.451a8.177 8.177 0 01-1.102.365l-.063.014c.099.5.214 1.027.341 1.577.106.454.199 1.015.259 1.587l.005.061c.049.604.099 1.192.148 1.769s.049 1.176.049 1.775zm0 1.352c0 .604 0 1.192-.077 1.764s-.099 1.165-.148 1.769a14.554 14.554 0 01-.282 1.746l.018-.097a76.131 76.131 0 00-.341 1.577c.461.115.849.243 1.225.395l-.06-.022c.379.148.764.302 1.165.451.458.17.83.335 1.19.518l-.063-.029 1.099.549c.451-.599.879-1.225 1.28-1.874.371-.596.723-1.289 1.016-2.011l.033-.093a11.8 11.8 0 00.663-2.212l.013-.079a17.6 17.6 0 00.299-2.313l.003-.056z"/></symbol><symbol id="icon-icon04" viewBox="0 0 27 32"><path fill="var(--color3, #1abc9c)" d="M15.865 4.755c1.721.277 3.265.841 4.653 1.646l-.065-.035a14.436 14.436 0 013.636 2.924l.012.014c1 1.175 1.826 2.537 2.414 4.02l.034.098c.57 1.422.901 3.071.901 4.797v.058-.003.111a13.38 13.38 0 01-1.101 5.332l.034-.087a14.005 14.005 0 01-2.939 4.354 13.768 13.768 0 01-4.317 2.904l-.09.034c-1.571.678-3.401 1.072-5.323 1.072s-3.751-.394-5.412-1.107l.089.034c-3.318-1.413-5.911-3.99-7.311-7.207l-.034-.089c-.677-1.568-1.071-3.394-1.071-5.312 0-1.761.332-3.444.937-4.991l-.032.093a14.394 14.394 0 012.465-4.138l-.017.02a14.318 14.318 0 013.578-2.901l.07-.037a13.207 13.207 0 014.506-1.596l.077-.01a3.532 3.532 0 01-.525-.849l-.009-.023a2.516 2.516 0 01-.201-.979V2.89c0-.409.086-.797.242-1.148l-.007.018c.148-.345.364-.635.633-.864l.003-.003c.258-.269.563-.491.902-.653l.019-.008a2.555 2.555 0 011.078-.235h.014-.001.031c.389 0 .757.087 1.087.242l-.016-.007c.351.165.65.379.906.636.273.232.489.522.631.852l.006.015c.149.333.235.722.235 1.13v.011-.001.012c0 .358-.074.699-.207 1.009l.006-.017c-.142.333-.318.62-.529.878l.005-.006zm-2.154 26.094l.139.001c1.72 0 3.355-.361 4.835-1.01l-.077.03a13.822 13.822 0 004.02-2.683l-.005.004a13.787 13.787 0 002.644-3.933l.035-.088c.62-1.395.98-3.023.98-4.735l-.001-.17v.009l.001-.155c0-1.714-.361-3.344-1.01-4.818l.03.077a13.895 13.895 0 00-2.683-4.02l.005.005a13.78 13.78 0 00-3.928-2.634l-.088-.035c-1.412-.635-3.061-1.004-4.797-1.004h-.105.005-.107c-1.733 0-3.38.37-4.865 1.035l.076-.03A13.847 13.847 0 004.79 9.378l.005-.005a13.707 13.707 0 00-2.639 3.928l-.035.087c-.64 1.443-1.013 3.126-1.013 4.897s.373 3.454 1.044 4.976l-.031-.079a13.741 13.741 0 002.678 4.025l-.004-.005a13.786 13.786 0 003.956 2.634l.088.035c1.4.619 3.033.98 4.75.98l.129-.001h-.007zm-6.816-5.675l4.368-9.372 9.304-4.353-4.407 9.304zm4.955-7.967L9.24 22.76l5.489-2.61zm1.861-16.071a1.8 1.8 0 00-.683.142l.012-.004c-.218.082-.4.221-.532.398l-.002.003c-.18.135-.318.316-.399.526l-.003.008a1.692 1.692 0 00-.137.671v.017c0 .225.051.438.141.629l-.004-.009c.101.221.236.41.401.567l.001.001c.153.14.336.251.538.32l.011.003c.193.087.417.141.654.147h.002a1.71 1.71 0 00.691-.151l-.011.004c.209-.079.388-.192.54-.334l-.001.001c.164-.159.299-.347.397-.556l.005-.012c.084-.185.132-.401.132-.629V2.87a1.806 1.806 0 00-.137-.683l.004.012a1.231 1.231 0 00-.399-.532l-.003-.002a1.21 1.21 0 00-.53-.399l-.008-.003a1.762 1.762 0 00-.665-.127h-.016.001zm1.875 18.211l2.556-5.489-5.489 2.546z"/></symbol><symbol id="icon-recent-icon" viewBox="0 0 32 32"><path d="M15.987 0h.097c2.208 0 4.309.461 6.211 1.292l-.1-.039a16.08 16.08 0 015.116 3.437 16.267 16.267 0 013.397 4.997l.041.105c.775 1.802 1.226 3.899 1.226 6.102v.098-.005.085c0 2.211-.456 4.316-1.278 6.225l.039-.102c-1.655 3.874-4.679 6.898-8.449 8.513l-.104.04c-1.799.775-3.892 1.226-6.092 1.226h-.109.006-.075c-2.215 0-4.323-.456-6.236-1.278l.103.039a16.315 16.315 0 01-5.103-3.438l.001.001a16.008 16.008 0 01-3.384-4.985l-.04-.104C.462 20.407.001 18.306.001 16.098v-.186c0-2.211.461-4.314 1.292-6.219l-.039.1c1.662-3.862 4.678-6.877 8.435-8.499l.104-.04C11.598.462 13.701.002 15.912.002h.08-.004zm0 30.641h.076c2.035 0 3.969-.432 5.715-1.208l-.09.036a15.975 15.975 0 004.696-3.097l-.007.006a15.918 15.918 0 003.09-4.575l.04-.101c.741-1.681 1.172-3.641 1.172-5.702s-.431-4.021-1.208-5.795l.036.093a16.156 16.156 0 00-3.136-4.681l.005.005A15.64 15.64 0 0021.8 2.544l-.1-.039c-1.643-.741-3.562-1.173-5.582-1.173l-.14.001h.007-.112c-2.023 0-3.944.432-5.678 1.208l.088-.035a15.858 15.858 0 00-4.667 3.122l.004-.004a15.794 15.794 0 00-3.078 4.575l-.04.101c-.741 1.646-1.173 3.567-1.173 5.59v.104-.005l-.001.12c0 2.02.432 3.939 1.208 5.67l-.035-.088a15.697 15.697 0 003.122 4.694l-.004-.004a16.112 16.112 0 004.574 3.09l.102.041c1.636.716 3.542 1.133 5.545 1.133l.151-.001h-.008zm0-25.312h1.332v13.322H7.993v-1.332h7.993z"/></symbol><symbol id="icon-submit" viewBox="0 0 56 32"><path fill="var(--color2, #fff)" d="M0 0l28.12 16L0 32zm2 3.41v25.181l22.096-12.59zM28.12 0l28.12 16-28.12 16zm2 3.41v25.181l22-12.59z"/></symbol></defs></svg>