<svg xmlns="http://www.w3.org/2000/svg" viewBox="0 0 66 66"><g id="Layer_2" data-name="Layer 2"><path d="M56.57 38.19c-.19.74-.37 1.43-.55 2.07a16.12 16.12 0 01-.7 1.94c-.27.56-.58 1.13-.9 1.73s-.67 1.22-1 1.87l5.41 7.47-5.41 5.4-7.21-5.26-1.8 1a17.76 17.76 0 01-1.8.9c-.65.18-1.3.39-1.94.62s-1.3.44-1.94.62L37.44 66h-8.88l-1.11-9.41a21.33 21.33 0 01-2.08-.59c-.64-.23-1.29-.49-1.94-.76s-1.27-.58-1.87-.9a19.81 19.81 0 01-1.73-1l-7.07 5.4-5.41-5.4 5.27-7.19c-.37-.56-.72-1.13-1-1.73a20.12 20.12 0 01-.9-1.87 15.4 15.4 0 01-.7-2c-.18-.69-.37-1.36-.55-2L0 37.36V28.5l9.43-1c.18-.73.37-1.42.55-2.07a17.46 17.46 0 01.7-1.94c.27-.55.55-1.13.83-1.73a13.39 13.39 0 011-1.73l-5.16-7.3 5.41-5.4 7.34 5.12a14.82 14.82 0 011.74-1c.6-.27 1.18-.55 1.73-.83a18.76 18.76 0 011.94-.62l2.08-.55 1-9.41h8.88l1.11 9.41c.64.19 1.31.37 2 .55a11 11 0 011.87.69c.64.28 1.27.58 1.87.9l1.87 1 7.07-5.26 5.41 5.4-5.27 7.06c.28.55.58 1.13.9 1.73s.63 1.22.91 1.86.53 1.32.76 2 .43 1.41.62 2.14l9.43.83v8.86zm-54.49-3l7.07.7c0-.46 0-1-.07-1.46S9 33.35 9 32.79s0-1.08.07-1.59.07-1 .07-1.59l-7.07.83zm8-22.27L14 18.13A10.69 10.69 0 0115 17l1.11-1.11 1-1c.33-.32.72-.66 1.18-1L12.9 10.1zm2.82 42.43l5.1-3.88a8 8 0 01-1-.9l-.91-.9-1-1a11.19 11.19 0 01-.9-1l-3.88 5.26zm20-1.25a22.48 22.48 0 004.3-.41 24.12 24.12 0 003.8-1.11 21.52 21.52 0 003.68-2 22.28 22.28 0 008-9.61 29 29 0 001.11-4 21.46 21.46 0 00-1.25-12.45 21.34 21.34 0 00-11.36-11.38A21.39 21.39 0 0028.7 11.9a29 29 0 00-4 1.11A21.7 21.7 0 0021 15a22.58 22.58 0 00-3.26 2.7A21.73 21.73 0 0013 24.63a20 20 0 00-1.24 4 21 21 0 00-.42 4.15 20.13 20.13 0 001.73 8.3 22.35 22.35 0 004.65 6.78 21.43 21.43 0 006.79 4.57 20.88 20.88 0 008.35 1.67zm2.36 9.41l.83-7.06c-.55 0-1.09 0-1.59.07s-1 .07-1.6.07-1.09 0-1.59-.07-1-.07-1.6-.07l.83 7.06zM30.5 2.08L30 9.13c.46 0 .95 0 1.46-.07S32.45 9 33 9s1 0 1.46.07 1 .07 1.59.07l-.83-7zm22.33 8L47.56 14a10.55 10.55 0 001.11 1 5 5 0 011 1 7.26 7.26 0 011 1q.48.56.9 1.11l3.88-5.26zm2.77 42.64l-3.88-5.54a6 6 0 01-.9 1.18l-1 1-1.11 1.1a9.62 9.62 0 01-1.11 1l5.4 3.89zm8-22.28l-7.07-.83a14.25 14.25 0 00.07 1.52 14.38 14.38 0 01.07 1.52c0 .56 0 1.09-.07 1.6s-.07 1-.07 1.45l7.11-.7z" fill="#1abc9c" id="Layer_1-2" data-name="Layer 1"/></g></svg>