<svg xmlns="http://www.w3.org/2000/svg" viewBox="0 0 58 54"><g id="Layer_2" data-name="Layer 2"><path d="M0 0h58v54H0zm55.65 51.62V2.38H2.35v49.24zM6.9 23.5H4.7v-9.37h2.2v9.37zm0 16.5H4.7v-9.36h2.2V40zM9.25 7h39.36v40H9.25zM46.4 44.63V9.37H11.6v35.26zM29 16.37a9.93 9.93 0 014 .84 9.42 9.42 0 013.32 2.38 10.7 10.7 0 012.21 3.28 10.69 10.69 0 010 8.26 10.7 10.7 0 01-2.21 3.28A9.42 9.42 0 0133 36.79a9.93 9.93 0 01-4 .84 9.62 9.62 0 01-3.87-.77 11.23 11.23 0 01-3.17-2 10.9 10.9 0 01-2.28-2.93 9.15 9.15 0 01-1-3.78h-2.52v-2.27h2.48a9.15 9.15 0 011-3.78A10.9 10.9 0 0122 19.17a11.23 11.23 0 013.17-2 9.79 9.79 0 013.83-.8zm0 18.88a7 7 0 003.11-.7 11.13 11.13 0 002.55-1.67 9 9 0 001.8-2.66 7.86 7.86 0 000-6.44 9 9 0 00-1.8-2.66 11.13 11.13 0 00-2.55-1.67 7 7 0 00-3.11-.7 7.53 7.53 0 00-2.9.56 8.42 8.42 0 00-4.28 3.77 7.08 7.08 0 00-.83 2.8h8v2.24H21a7 7 0 00.83 2.8 8.42 8.42 0 004.28 3.77 7.53 7.53 0 002.89.56z" fill="#1abc9c" id="Layer_1-2" data-name="Layer 1"/></g></svg>