<svg xmlns="http://www.w3.org/2000/svg" viewBox="0 0 56.05 65.35"><g id="Layer_2" data-name="Layer 2"><path d="M32.4 9.71A27.52 27.52 0 0141.77 13a29.24 29.24 0 017.45 6 29.54 29.54 0 015 8.41 27 27 0 011.84 9.91 27.4 27.4 0 01-2.18 10.94 28.46 28.46 0 01-6 8.89 28.08 28.08 0 01-9 6 28.07 28.07 0 01-21.74 0 28.09 28.09 0 01-15-14.9A28 28 0 011.8 27.4a29.31 29.31 0 015-8.41 29.06 29.06 0 017.45-6 27.47 27.47 0 019.36-3.28 7.28 7.28 0 01-1.09-1.78 5.21 5.21 0 01-.41-2 5.79 5.79 0 01.48-2.33 4.72 4.72 0 011.3-1.77A6.35 6.35 0 0125.77.48 5.29 5.29 0 0128 0a5.22 5.22 0 012.25.48 6.39 6.39 0 011.85 1.3 4.72 4.72 0 011.3 1.77 5.79 5.79 0 01.48 2.33 5.21 5.21 0 01-.41 2.05 7.32 7.32 0 01-1.07 1.78zM28 63a24.58 24.58 0 0010-2 28.08 28.08 0 008.2-5.47 28.13 28.13 0 005.47-8.21 24.35 24.35 0 002-10 24.42 24.42 0 00-2-10 28.22 28.22 0 00-5.47-8.2 28.08 28.08 0 00-8.2-5.45 24.42 24.42 0 00-10-2.05 24.35 24.35 0 00-10 2.05 28.13 28.13 0 00-8.21 5.47 28 28 0 00-5.46 8.2 25.2 25.2 0 000 20 27.91 27.91 0 005.46 8.21A28.13 28.13 0 0018.05 61 24.51 24.51 0 0028 63zM14.08 51.41L23 32.27l19-8.89-9 19zM24.2 35.14l-5.33 11.34 11.21-5.33zM28 2.32a3.73 3.73 0 00-1.37.28 2.38 2.38 0 00-1.09.82 2.43 2.43 0 00-.82 1.09 3.53 3.53 0 00-.28 1.37 3 3 0 00.28 1.3 3.69 3.69 0 00.82 1.16 3.13 3.13 0 001.12.66 3.53 3.53 0 001.34.3 3.49 3.49 0 001.39-.3 3.28 3.28 0 001.1-.68 3.85 3.85 0 00.82-1.16 3.19 3.19 0 00.27-1.3 3.71 3.71 0 00-.27-1.37 2.51 2.51 0 00-.82-1.09 2.46 2.46 0 00-1.1-.82A3.68 3.68 0 0028 2.32zm3.83 37.19l5.22-11.21-11.21 5.2z" fill="#1abc9c" id="Layer_1-2" data-name="Layer 1"/></g></svg>