<svg xmlns="http://www.w3.org/2000/svg" viewBox="0 0 16.03 17.97"><defs><style>.a{fill:#fefefe;}</style></defs><title>Asset 1</title><path class="a" d="M11.13,17.6a12,12,0,0,1-2.07-1.12A17.41,17.41,0,0,1,6.7,14.59a18.31,18.31,0,0,1-2.36-2.72C3.61,10.89,3,10,2.42,9.14A19.37,19.37,0,0,1,1.09,6.8a13.13,13.13,0,0,1-.82-2A5.58,5.58,0,0,1,0,3.24a2.47,2.47,0,0,1,.18-1,3,3,0,0,1,.41-.75A5.82,5.82,0,0,1,1.13,1L1.6.66,1.72.59A2.53,2.53,0,0,1,2.79.12,5.24,5.24,0,0,1,3.67,0a1.06,1.06,0,0,1,.71.21A1.64,1.64,0,0,1,4.73.7c.07.13.31.63.72,1.51s.63,1.38.68,1.54a1,1,0,0,1,.1.37,1.4,1.4,0,0,1,0,.41A2.43,2.43,0,0,1,6,5a1.32,1.32,0,0,1-.32.35l-.07,0a5.12,5.12,0,0,0-.53.41.85.85,0,0,0-.33.57.54.54,0,0,0,0,.33A.87.87,0,0,0,5,7c.24.31.56.74,1,1.27s.84,1.08,1.29,1.62.85,1,1.23,1.49a8,8,0,0,0,.76.82,1.24,1.24,0,0,0,.31.23.71.71,0,0,0,.31.08.69.69,0,0,0,.35,0,.61.61,0,0,0,.28-.16,4.81,4.81,0,0,0,.51-.5h0a1.09,1.09,0,0,1,.23-.16,1,1,0,0,1,.55-.12,1.42,1.42,0,0,1,.48.1,2.82,2.82,0,0,1,.49.25c.45.29,1.38.92,2.82,1.88l0,0a1.28,1.28,0,0,1,.36.58,1.26,1.26,0,0,1-.16,1,5.17,5.17,0,0,1-.49.76,5.45,5.45,0,0,1-.76.84,4.85,4.85,0,0,1-.92.66,1.93,1.93,0,0,1-1,.28A4.38,4.38,0,0,1,11.13,17.6ZM3,.76a2.46,2.46,0,0,0-.84.33L2,1.21l-.43.29A2.32,2.32,0,0,0,1.13,2,2.29,2.29,0,0,0,.8,2.5a1.88,1.88,0,0,0-.14.74A4.72,4.72,0,0,0,.94,4.75,13.29,13.29,0,0,0,1.72,6.6,24.32,24.32,0,0,0,3,8.83c.52.81,1.13,1.69,1.83,2.65a21.57,21.57,0,0,0,2.37,2.64,18.13,18.13,0,0,0,2.24,1.82,10.45,10.45,0,0,0,1.9,1,3.86,3.86,0,0,0,1.31.33,1.53,1.53,0,0,0,.76-.23,5.06,5.06,0,0,0,.76-.55,5.92,5.92,0,0,0,.62-.72,3.93,3.93,0,0,0,.43-.68.73.73,0,0,0,.08-.55.62.62,0,0,0-.12-.23Q15,14.22,14,13.53l-1.6-1.07a1.24,1.24,0,0,0-.31-.18,1.12,1.12,0,0,0-.31,0,.49.49,0,0,0-.24,0l-.12.07-.17.18-.37.33a1.4,1.4,0,0,1-.51.27,1.14,1.14,0,0,1-.55,0,1.64,1.64,0,0,1-.56-.11,1.56,1.56,0,0,1-.53-.36c-.13-.13-.39-.42-.78-.89L6.68,10.27C6.24,9.7,5.8,9.15,5.37,8.61s-.75-.94-1-1.23a1.7,1.7,0,0,1-.27-.56,1.78,1.78,0,0,1,0-.61,1.52,1.52,0,0,1,.18-.47,2.47,2.47,0,0,1,.29-.39A1.58,1.58,0,0,1,4.9,5l.33-.24.08,0a.57.57,0,0,0,.24-.45,1.14,1.14,0,0,0,0-.34c0-.13-.28-.62-.67-1.48S4.22,1.13,4.14,1A.58.58,0,0,0,4,.74.46.46,0,0,0,3.67.66,4.73,4.73,0,0,0,3,.76Z"/></svg>