<svg aria-hidden="true" style="position: absolute; width: 0; height: 0; overflow: hidden;" version="1.1" xmlns="http://www.w3.org/2000/svg" xmlns:xlink="http://www.w3.org/1999/xlink">
<defs>
<symbol id="icon-phone" viewBox="0 0 29 32">
<title>phone</title>
<path d="M19.82 31.341c-1.415-0.6-2.626-1.268-3.76-2.042l0.074 0.047c-1.572-1.056-2.944-2.163-4.214-3.377l0.012 0.011c-1.534-1.453-2.915-3.038-4.135-4.745l-0.067-0.099c-1.3-1.745-2.386-3.33-3.419-4.861-0.796-1.178-1.585-2.543-2.278-3.963l-0.090-0.204c-0.522-0.995-1.017-2.173-1.414-3.396l-0.046-0.165c-0.277-0.825-0.451-1.776-0.48-2.763l-0-0.015c-0.001-0.038-0.002-0.083-0.002-0.128 0-0.596 0.118-1.164 0.333-1.682l-0.011 0.029c0.193-0.51 0.439-0.951 0.74-1.349l-0.010 0.013c0.298-0.306 0.611-0.591 0.942-0.857l0.020-0.016 0.837-0.605 0.214-0.125c0.534-0.407 1.177-0.701 1.877-0.833l0.028-0.004c0.458-0.108 0.995-0.184 1.544-0.213l0.023-0.001c0.039-0.003 0.085-0.005 0.13-0.005 0.428 0 0.822 0.142 1.139 0.382l-0.005-0.003c0.254 0.245 0.463 0.534 0.616 0.855l0.008 0.018c0.125 0.232 0.552 1.122 1.282 2.689s1.122 2.457 1.211 2.742c0.097 0.192 0.16 0.416 0.178 0.653l0 0.006c0.017 0.11 0.027 0.236 0.027 0.365s-0.010 0.255-0.029 0.379l0.002-0.014c-0.117 0.321-0.255 0.597-0.42 0.854l0.010-0.017c-0.155 0.244-0.344 0.451-0.564 0.619l-0.006 0.004h-0.125c-0.354 0.24-0.662 0.48-0.953 0.738l0.009-0.008c-0.316 0.241-0.533 0.599-0.587 1.007l-0.001 0.008c-0.029 0.088-0.046 0.189-0.046 0.294s0.017 0.206 0.048 0.301l-0.002-0.007c0.101 0.242 0.252 0.445 0.443 0.603l0.002 0.002c0.427 0.552 0.997 1.318 1.781 2.262s1.496 1.923 2.297 2.885 1.514 1.781 2.19 2.653c0.43 0.532 0.873 1.009 1.346 1.453l0.007 0.007c0.158 0.161 0.34 0.297 0.54 0.404l0.012 0.006c0.16 0.085 0.349 0.137 0.55 0.142l0.002 0c0.093 0.026 0.201 0.040 0.312 0.040s0.218-0.015 0.32-0.042l-0.009 0.002c0.196-0.052 0.365-0.151 0.499-0.285l0-0c0.329-0.279 0.626-0.57 0.9-0.881l0.008-0.009c0.119-0.108 0.254-0.203 0.399-0.28l0.011-0.005c0.247-0.137 0.541-0.218 0.854-0.218 0.044 0 0.088 0.002 0.131 0.005l-0.006-0c0.31 0.010 0.602 0.075 0.872 0.184l-0.017-0.006c0.335 0.133 0.623 0.282 0.892 0.457l-0.020-0.012c0.801 0.516 2.457 1.638 5.022 3.348v0c0.296 0.274 0.518 0.623 0.637 1.017l0.004 0.016c0.046 0.17 0.073 0.365 0.073 0.566 0 0.451-0.133 0.872-0.363 1.224l0.005-0.009c-0.274 0.516-0.564 0.959-0.888 1.374l0.015-0.020c-0.41 0.558-0.855 1.047-1.345 1.488l-0.009 0.008c-0.479 0.438-1.017 0.828-1.595 1.153l-0.043 0.022c-0.508 0.313-1.122 0.498-1.781 0.499h-0c-0.976-0.032-1.896-0.238-2.741-0.589l0.052 0.019zM5.342 1.353c-0.565 0.111-1.067 0.315-1.514 0.598l0.018-0.011-0.285 0.214-0.766 0.516c-0.301 0.257-0.56 0.55-0.774 0.875l-0.010 0.015c-0.225 0.258-0.421 0.551-0.577 0.867l-0.011 0.024c-0.158 0.375-0.25 0.811-0.25 1.269 0 0.017 0 0.035 0 0.052l-0-0.003c0.020 0.97 0.201 1.891 0.517 2.747l-0.019-0.058c0.437 1.293 0.906 2.382 1.451 3.425l-0.062-0.131c0.803 1.583 1.56 2.882 2.381 4.136l-0.102-0.165c0.926 1.442 2.012 3.009 3.259 4.719 1.322 1.732 2.705 3.268 4.202 4.684l0.018 0.017c1.2 1.147 2.502 2.211 3.883 3.171l0.106 0.070c0.973 0.657 2.086 1.255 3.259 1.736l0.124 0.045c0.683 0.315 1.476 0.525 2.31 0.586l0.023 0.001c0.503-0.016 0.968-0.167 1.365-0.416l-0.011 0.007c0.511-0.305 0.954-0.628 1.363-0.988l-0.010 0.009c0.393-0.389 0.756-0.808 1.084-1.253l0.020-0.029c0.28-0.353 0.534-0.749 0.747-1.171l0.018-0.040c0.114-0.189 0.182-0.418 0.182-0.663 0-0.112-0.014-0.222-0.041-0.326l0.002 0.009c-0.044-0.158-0.118-0.295-0.215-0.411l0.001 0.002q-0.321-0.16-2.101-1.389l-2.849-1.905c-0.159-0.127-0.341-0.235-0.537-0.315l-0.015-0.005c-0.083-0.012-0.179-0.019-0.276-0.019s-0.193 0.007-0.287 0.020l0.011-0.001c-0.064-0.017-0.138-0.027-0.214-0.027s-0.15 0.010-0.22 0.028l0.006-0.001-0.214 0.125-0.303 0.321-0.659 0.588c-0.255 0.213-0.558 0.379-0.891 0.476l-0.018 0.004c-0.147 0.038-0.316 0.060-0.49 0.060s-0.343-0.022-0.504-0.063l0.014 0.003c-0.36-0.007-0.702-0.078-1.017-0.203l0.020 0.007c-0.369-0.154-0.683-0.371-0.943-0.64l-0.001-0.001c-0.232-0.232-0.694-0.748-1.389-1.585l-2.262-2.671c-0.784-1.015-1.567-1.994-2.333-2.956s-1.336-1.674-1.781-2.19c-0.21-0.284-0.375-0.616-0.476-0.976l-0.005-0.021c-0.030-0.163-0.047-0.351-0.047-0.543s0.017-0.38 0.050-0.562l-0.003 0.019c0.065-0.316 0.176-0.596 0.327-0.849l-0.007 0.012c0.159-0.262 0.329-0.489 0.52-0.698l-0.003 0.003c0.167-0.24 0.361-0.445 0.582-0.619l0.006-0.005 0.588-0.427h0.142c0.253-0.181 0.418-0.471 0.427-0.8l0-0.001c0.014-0.091 0.023-0.196 0.023-0.303s-0.008-0.212-0.024-0.314l0.001 0.011c0-0.231-0.499-1.104-1.193-2.636s-1.175-2.422-1.318-2.653c-0.045-0.181-0.131-0.337-0.25-0.464l0.001 0.001c-0.132-0.094-0.296-0.151-0.473-0.151-0.040 0-0.080 0.003-0.119 0.009l0.004-0.001c-0.445 0.035-0.853 0.098-1.25 0.189l0.057-0.011z"></path>
</symbol>
<symbol id="icon-add-to-cart" viewBox="0 0 34 32">
<title>add-to-cart</title>
<path fill="#fff" style="fill: var(--color2, #fff)" d="M33.722 8.609l-4.919 14.758h-17.34l0.578 2.46h13.184c0.032-0.001 0.069-0.002 0.106-0.002 0.408 0 0.794 0.091 1.14 0.255l-0.016-0.007c0.381 0.178 0.706 0.409 0.984 0.689l0 0c0.272 0.268 0.489 0.592 0.633 0.953l0.007 0.019c0.14 0.352 0.221 0.76 0.221 1.187s-0.081 0.835-0.229 1.209l0.008-0.022c-0.147 0.381-0.365 0.705-0.639 0.971l-0.001 0.001c-0.277 0.279-0.603 0.511-0.963 0.68l-0.021 0.009c-0.337 0.164-0.732 0.259-1.151 0.259-0.028 0-0.056-0-0.083-0.001l0.004 0c-0.005 0-0.011 0-0.017 0-0.439 0-0.856-0.095-1.231-0.266l0.019 0.008c-0.372-0.159-0.685-0.393-0.932-0.685l-0.003-0.004c-0.278-0.274-0.509-0.596-0.68-0.951l-0.009-0.020c-0.155-0.344-0.246-0.746-0.246-1.168 0-0.353 0.063-0.691 0.178-1.004l-0.006 0.020c0.124-0.32 0.286-0.597 0.484-0.842l-0.005 0.006h-8.609c0.194 0.24 0.356 0.516 0.472 0.815l0.007 0.021c0.109 0.293 0.172 0.631 0.172 0.984 0 0.423-0.090 0.825-0.253 1.187l0.007-0.018c-0.18 0.376-0.411 0.697-0.688 0.971l-0 0c-0.274 0.279-0.595 0.51-0.951 0.68l-0.020 0.009c-0.34 0.164-0.739 0.259-1.161 0.259-0.024 0-0.048-0-0.072-0.001l0.004 0c-0.024 0.001-0.051 0.001-0.079 0.001-0.418 0-0.814-0.096-1.167-0.266l0.016 0.007c-0.381-0.178-0.707-0.409-0.984-0.689l-0-0c-0.278-0.272-0.506-0.594-0.668-0.952l-0.008-0.020c-0.164-0.337-0.259-0.732-0.259-1.151 0-0.028 0-0.056 0.001-0.083l-0 0.004c-0-0.005-0-0.010-0-0.015 0-0.345 0.068-0.673 0.191-0.973l-0.006 0.017c0.149-0.324 0.317-0.603 0.512-0.86l-0.008 0.011c0.206-0.249 0.446-0.461 0.713-0.632l0.012-0.007c0.248-0.178 0.532-0.328 0.837-0.436l0.024-0.007-5.977-24.744h-4.833v-1.23h5.768l2.091 8.609zM11.167 22.137h16.652l4.157-12.298h-23.76zM13.528 28.901c0-0.002 0-0.005 0-0.007 0-0.247-0.054-0.482-0.152-0.692l0.004 0.010c-0.114-0.237-0.258-0.44-0.431-0.615l0 0c-0.162-0.15-0.354-0.271-0.566-0.352l-0.012-0.004c-0.204-0.1-0.443-0.167-0.695-0.184l-0.006-0c-0.002 0-0.004 0-0.005 0-0.243 0-0.474 0.054-0.681 0.152l0.010-0.004c-0.235 0.1-0.437 0.219-0.621 0.361l0.006-0.005c-0.138 0.178-0.261 0.38-0.361 0.596l-0.008 0.019c-0.101 0.212-0.164 0.461-0.172 0.723l-0 0.003c0.003 0.257 0.053 0.502 0.14 0.728l-0.005-0.014c0.087 0.225 0.212 0.418 0.369 0.578l-0-0c0.17 0.18 0.375 0.325 0.603 0.426l0.012 0.005c0.197 0.093 0.428 0.148 0.671 0.148 0.002 0 0.004 0 0.006 0h-0c0.262-0.002 0.511-0.056 0.738-0.152l-0.013 0.005c0.234-0.092 0.429-0.24 0.576-0.427l0.002-0.003c0.189-0.15 0.337-0.345 0.427-0.569l0.003-0.009c0.096-0.21 0.154-0.454 0.16-0.711l0-0.002zM27.056 28.901c-0.001-0.248-0.051-0.485-0.14-0.701l0.005 0.012c-0.108-0.235-0.231-0.437-0.374-0.622l0.005 0.007c-0.178-0.137-0.38-0.257-0.597-0.35l-0.018-0.007c-0.197-0.093-0.427-0.148-0.671-0.148-0.002 0-0.004 0-0.006 0h0c-0.012-0-0.027-0-0.041-0-0.261 0-0.509 0.054-0.733 0.153l0.012-0.005c-0.209 0.092-0.388 0.212-0.542 0.358l0.001-0.001c-0.172 0.175-0.317 0.378-0.425 0.602l-0.006 0.013c-0.093 0.2-0.148 0.435-0.148 0.682 0 0.002 0 0.005 0 0.007v-0c0.002 0.258 0.056 0.503 0.152 0.725l-0.005-0.012c0.094 0.233 0.241 0.428 0.428 0.576l0.003 0.002c0.141 0.184 0.323 0.331 0.532 0.427l0.009 0.004c0.213 0.094 0.461 0.148 0.722 0.148 0.014 0 0.029-0 0.043-0l-0.002 0c0.002 0 0.004 0 0.005 0 0.243 0 0.474-0.054 0.681-0.152l-0.010 0.004c0.24-0.106 0.445-0.251 0.614-0.43l0.001-0.001c0.157-0.16 0.282-0.353 0.365-0.567l0.004-0.011c0.083-0.211 0.132-0.456 0.135-0.712v-0.001z"></path>
</symbol>
<symbol id="icon-comper-icon" viewBox="0 0 37 32">
<title>comper-icon</title>
<path d="M30.043 18.987l6.587 6.587-6.587 6.499-1.037-1.022 4.79-4.79h-9.23l-17.804-18.958h-6.762v-1.461h7.303l17.804 18.987h8.632l-4.791-4.703zM13.349 17.716l1.11 1.022-7.157 7.449h-7.303v-1.461h6.762zM18.49 14.372l-0.964-1.022 7.040-7.507h9.231l-4.791-4.82 1.037-1.022 6.587 6.499-6.587 6.645-1.037-1.11 4.79-4.732h-8.632z"></path>
</symbol>
<symbol id="icon-decoration-icon-green" viewBox="0 0 350 32">
<title>decoration-icon-green</title>
<path fill="#1abc9c" style="fill: var(--color3, #1abc9c)" d="M0 27.733h349.867v4.267h-349.867v-4.267z"></path>
<path fill="#1abc9c" style="fill: var(--color3, #1abc9c)" d="M0 8.533h349.867v14.933h-349.867v-14.933z"></path>
<path fill="#1abc9c" style="fill: var(--color3, #1abc9c)" d="M0 0h349.867v4.267h-349.867v-4.267z"></path>
</symbol>
<symbol id="icon-decoration-icon-white" viewBox="0 0 350 32">
<title>decoration-icon-white</title>
<path fill="#fff" style="fill: var(--color2, #fff)" d="M0 27.733h349.867v4.267h-349.867v-4.267z"></path>
<path fill="#fff" style="fill: var(--color2, #fff)" d="M0 8.533h349.867v14.933h-349.867v-14.933z"></path>
<path fill="#fff" style="fill: var(--color2, #fff)" d="M0 0h349.867v4.267h-349.867v-4.267z"></path>
</symbol>
<symbol id="icon-email" viewBox="0 0 50 32">
<title>email</title>
<path d="M47.962 0h-47.962v32h50.007v-32zM45.974 2.007l-19.32 19.301c-0.427 0.411-1.009 0.665-1.651 0.665s-1.223-0.253-1.651-0.665l0.001 0.001-19.32-19.301zM2.007 2.87l12.98 12.98-12.98 12.924v-25.904zM3.601 30.068l12.811-12.793 5.533 5.533c0.779 0.789 1.861 1.278 3.057 1.278s2.278-0.489 3.057-1.278l5.534-5.534 12.811 12.793zM48 28.849l-12.98-12.999 12.98-12.98z"></path>
</symbol>
<symbol id="icon-favorit-icon" viewBox="0 0 36 32">
<title>favorit-icon</title>
<path d="M25.737 0c0.017-0 0.037-0 0.058-0 1.386 0 2.703 0.295 3.892 0.825l-0.061-0.024c1.218 0.541 2.26 1.258 3.147 2.132l-0.001-0.001c0.916 0.867 1.651 1.914 2.151 3.085l0.023 0.060c0.506 1.142 0.801 2.475 0.801 3.876 0 0.020-0 0.039-0 0.059v-0.003c-0.001 0.714-0.079 1.41-0.226 2.080l0.012-0.064c-0.145 0.743-0.333 1.39-0.571 2.013l0.028-0.082c-0.331 0.661-0.649 1.209-0.997 1.735l0.039-0.062c-0.378 0.543-0.807 1.013-1.29 1.421l-0.011 0.009-14.885 14.942-15.085-15.156c-0.425-0.427-0.811-0.895-1.151-1.396l-0.022-0.034c-0.308-0.481-0.613-1.044-0.88-1.629l-0.035-0.087c-0.223-0.533-0.398-1.154-0.495-1.801l-0.005-0.044c-0.105-0.552-0.167-1.19-0.172-1.841l-0-0.004c-0-0.033-0.001-0.071-0.001-0.11 0-1.379 0.279-2.692 0.783-3.888l-0.025 0.066c0.522-1.232 1.258-2.279 2.169-3.142l0.004-0.004c0.885-0.873 1.927-1.59 3.079-2.104l0.066-0.026c1.128-0.506 2.446-0.801 3.832-0.801 0.035 0 0.070 0 0.105 0.001l-0.005-0c0.802 0.002 1.581 0.095 2.329 0.271l-0.069-0.014c0.811 0.174 1.528 0.43 2.197 0.767l-0.052-0.024c0.719 0.367 1.337 0.771 1.908 1.232l-0.021-0.016c0.586 0.479 1.095 1.020 1.527 1.619l0.017 0.025c0.449-0.625 0.958-1.165 1.529-1.632l0.015-0.012c0.55-0.444 1.169-0.848 1.826-1.187l0.061-0.029c0.617-0.313 1.334-0.569 2.085-0.733l0.060-0.011c0.685-0.164 1.472-0.257 2.281-0.257 0.012 0 0.025 0 0.037 0h-0.002zM25.737 1.43c-0.026-0-0.057-0-0.088-0-0.882 0-1.733 0.136-2.531 0.388l0.059-0.016c-0.85 0.269-1.589 0.628-2.262 1.078l0.032-0.020c-0.678 0.507-1.27 1.072-1.788 1.699l-0.014 0.017c-0.514 0.617-0.951 1.324-1.28 2.089l-0.021 0.056c-0.35-0.821-0.787-1.528-1.312-2.159l0.011 0.014c-0.532-0.644-1.123-1.208-1.775-1.697l-0.027-0.019c-0.638-0.424-1.372-0.779-2.154-1.027l-0.062-0.017c-0.752-0.245-1.618-0.386-2.516-0.386-0 0-0 0-0 0h0c-0.021-0-0.046-0-0.071-0-1.167 0-2.278 0.242-3.285 0.679l0.053-0.021c-1.073 0.466-1.992 1.087-2.776 1.847l0.002-0.002c-0.753 0.77-1.374 1.674-1.821 2.673l-0.023 0.058c-0.416 0.954-0.659 2.065-0.659 3.233 0 0.040 0 0.079 0.001 0.119l-0-0.006c-0 0.019-0 0.043-0 0.066 0 0.569 0.057 1.124 0.167 1.661l-0.009-0.053c0.125 0.63 0.274 1.167 0.455 1.689l-0.026-0.087c0.239 0.549 0.502 1.019 0.805 1.459l-0.019-0.029c0.296 0.439 0.616 0.823 0.971 1.171l0.001 0.001 14.070 14.141 13.827-13.912c0.383-0.383 0.739-0.794 1.065-1.229l0.021-0.030c0.311-0.414 0.592-0.884 0.823-1.381l0.020-0.049c0.187-0.467 0.359-1.032 0.487-1.613l0.014-0.075c0.122-0.514 0.199-1.109 0.214-1.719l0-0.011c0-0.021 0-0.046 0-0.071 0-1.167-0.242-2.278-0.679-3.285l0.021 0.053c-0.471-1.057-1.091-1.961-1.846-2.733l0.002 0.002c-0.784-0.775-1.708-1.41-2.73-1.864l-0.059-0.023c-0.953-0.416-2.064-0.658-3.231-0.658-0.020 0-0.040 0-0.060 0l0.003-0z"></path>
</symbol>
<symbol id="icon-icon01" viewBox="0 0 32 32">
<title>icon01</title>
<path fill="#1abc9c" style="fill: var(--color3, #1abc9c)" d="M27.428 18.516c-0.092 0.359-0.179 0.693-0.267 1.004-0.11 0.376-0.225 0.688-0.359 0.99l0.020-0.050c-0.131 0.271-0.281 0.548-0.436 0.839s-0.325 0.591-0.485 0.907l2.623 3.622-2.623 2.618-3.496-2.55-0.873 0.485c-0.236 0.139-0.522 0.285-0.817 0.415l-0.055 0.022c-0.315 0.087-0.63 0.189-0.941 0.301s-0.63 0.213-0.941 0.301l-0.625 4.582h-4.305l-0.538-4.562c-0.414-0.095-0.751-0.193-1.081-0.308l0.073 0.022c-0.31-0.111-0.625-0.238-0.941-0.369s-0.616-0.281-0.907-0.436c-0.336-0.173-0.61-0.334-0.875-0.507l0.037 0.022-3.428 2.618-2.623-2.618 2.555-3.486c-0.179-0.271-0.349-0.548-0.485-0.839-0.135-0.239-0.281-0.537-0.412-0.843l-0.024-0.064c-0.118-0.263-0.233-0.585-0.327-0.917l-0.013-0.053c-0.087-0.335-0.179-0.659-0.267-0.97l-4.591-0.577v-4.296l4.572-0.485c0.087-0.354 0.179-0.688 0.267-1.004 0.113-0.38 0.228-0.692 0.361-0.995l-0.021 0.054c0.131-0.267 0.267-0.548 0.402-0.839 0.158-0.325 0.319-0.6 0.499-0.861l-0.014 0.022-2.502-3.539 2.623-2.618 3.559 2.482c0.238-0.162 0.515-0.323 0.802-0.466l0.042-0.019c0.291-0.131 0.572-0.267 0.839-0.402 0.243-0.098 0.557-0.2 0.877-0.286l0.064-0.014 1.008-0.267 0.485-4.562h4.305l0.538 4.562c0.31 0.092 0.635 0.179 0.97 0.267 0.35 0.095 0.651 0.209 0.938 0.348l-0.032-0.014c0.31 0.136 0.616 0.281 0.907 0.436l0.907 0.485 3.428-2.55 2.623 2.618-2.555 3.423c0.136 0.267 0.281 0.548 0.436 0.839s0.305 0.591 0.441 0.902 0.257 0.64 0.369 0.97 0.209 0.684 0.301 1.038l4.572 0.402v4.296zM1.008 17.062l3.428 0.339c0-0.223 0-0.485-0.034-0.708s-0.039-0.524-0.039-0.795 0-0.524 0.034-0.771 0.034-0.485 0.034-0.771l-3.428 0.402zM4.887 6.264l1.901 2.526c0.155-0.201 0.314-0.38 0.484-0.547l0.001-0.001 1.023-1.023c0.16-0.155 0.349-0.32 0.572-0.485l-2.613-1.838zM6.255 26.836l2.473-1.881c-0.179-0.136-0.337-0.279-0.483-0.434l-0.002-0.002-0.441-0.436-0.485-0.485c-0.152-0.15-0.295-0.308-0.428-0.474l-0.008-0.011-1.881 2.55zM15.951 26.23c0.004 0 0.008 0 0.013 0 0.733 0 1.449-0.072 2.142-0.21l-0.069 0.012c0.712-0.147 1.329-0.333 1.922-0.566l-0.079 0.027c0.685-0.293 1.271-0.617 1.82-0.993l-0.036 0.023c1.699-1.154 3.029-2.735 3.852-4.59l0.027-0.069c0.198-0.531 0.384-1.181 0.522-1.848l0.016-0.091c0.126-0.608 0.199-1.308 0.199-2.024 0-1.448-0.296-2.828-0.831-4.080l0.026 0.068c-1.069-2.496-3.015-4.445-5.441-5.492l-0.067-0.026c-1.183-0.509-2.56-0.805-4.006-0.805-0.724 0-1.43 0.074-2.112 0.215l0.067-0.012c-0.758 0.154-1.408 0.34-2.037 0.569l0.098-0.031c-0.689 0.291-1.279 0.614-1.831 0.988l0.037-0.024c-0.59 0.405-1.107 0.835-1.581 1.309l-0 0c-0.954 0.937-1.729 2.052-2.272 3.292l-0.026 0.068c-0.245 0.553-0.453 1.202-0.591 1.877l-0.011 0.062c-0.129 0.604-0.203 1.299-0.204 2.011v0.001c-0 0.019-0 0.042-0 0.065 0 1.433 0.309 2.794 0.864 4.020l-0.025-0.061c0.572 1.275 1.33 2.364 2.254 3.287l0 0c0.921 0.919 2.013 1.666 3.225 2.19l0.067 0.026c1.17 0.512 2.534 0.81 3.968 0.81 0.028 0 0.057-0 0.085-0l-0.004 0zM17.096 30.793l0.402-3.423c-0.267 0-0.529 0-0.771 0.034s-0.485 0.034-0.776 0.034-0.528 0-0.771-0.034-0.485-0.034-0.776-0.034l0.402 3.423zM14.788 1.008l-0.242 3.418c0.223 0 0.461 0 0.708-0.034s0.48-0.029 0.747-0.029 0.485 0 0.708 0.034 0.485 0.034 0.771 0.034l-0.402-3.394zM25.615 4.887l-2.555 1.901c0.165 0.172 0.341 0.33 0.527 0.476l0.011 0.008c0.185 0.14 0.345 0.3 0.48 0.479l0.004 0.006c0.179 0.147 0.337 0.306 0.48 0.479l0.005 0.006q0.233 0.271 0.436 0.538l1.881-2.55zM26.958 25.561l-1.881-2.686c-0.128 0.217-0.272 0.405-0.437 0.573l0-0-0.485 0.485-0.538 0.533c-0.165 0.173-0.34 0.332-0.527 0.477l-0.011 0.008 2.618 1.886zM30.836 14.759l-3.428-0.402c-0 0.015-0 0.033-0 0.051 0 0.242 0.012 0.48 0.037 0.715l-0.002-0.029c0.022 0.207 0.034 0.446 0.034 0.689 0 0.017-0 0.034-0 0.051v-0.003c0 0.272 0 0.528-0.034 0.776s-0.034 0.485-0.034 0.703l3.447-0.339z"></path>
</symbol>
<symbol id="icon-icon02" viewBox="0 0 34 32">
<title>icon02</title>
<path fill="#1abc9c" style="fill: var(--color3, #1abc9c)" d="M0 0h34.37v32h-34.37zM32.978 30.59v-29.179h-31.585v29.179zM4.089 13.926h-1.304v-5.553h1.304v5.553zM4.089 23.704h-1.304v-5.547h1.304v5.547zM5.481 4.148h23.324v23.704h-23.324zM27.496 26.447v-20.895h-20.622v20.895zM17.185 9.701c0 0 0.001 0 0.002 0 0.857 0 1.671 0.183 2.406 0.513l-0.037-0.015c0.775 0.336 1.431 0.814 1.963 1.405l0.005 0.005c0.539 0.546 0.98 1.19 1.294 1.903l0.016 0.041c0.311 0.723 0.492 1.564 0.492 2.447s-0.181 1.725-0.508 2.489l0.016-0.041c-0.33 0.754-0.771 1.398-1.31 1.944l0.001-0.001c-0.536 0.597-1.192 1.074-1.931 1.396l-0.036 0.014c-0.697 0.315-1.512 0.498-2.369 0.498-0.001 0-0.001 0-0.002 0h0c-0.017 0-0.038 0-0.058 0-0.808 0-1.576-0.168-2.272-0.471l0.037 0.014c-0.723-0.306-1.344-0.704-1.885-1.191l0.006 0.005c-0.537-0.49-0.988-1.064-1.334-1.702l-0.017-0.034c-0.341-0.651-0.556-1.416-0.592-2.228l-0-0.012h-1.493v-1.345h1.47c0.037-0.824 0.252-1.589 0.607-2.27l-0.014 0.030c0.377-0.674 0.843-1.248 1.391-1.73l0.007-0.006c0.535-0.481 1.156-0.88 1.835-1.169l0.043-0.016c0.669-0.296 1.448-0.47 2.268-0.474h0.001zM17.185 20.889c0.010 0 0.022 0 0.035 0 0.658 0 1.28-0.153 1.833-0.426l-0.024 0.011c0.577-0.277 1.074-0.607 1.519-0.996l-0.008 0.007c0.435-0.445 0.794-0.966 1.053-1.543l0.014-0.034c0.258-0.561 0.409-1.217 0.409-1.908s-0.151-1.347-0.421-1.937l0.012 0.029c-0.273-0.61-0.631-1.132-1.068-1.577l0.001 0.001c-0.437-0.383-0.934-0.713-1.472-0.972l-0.039-0.017c-0.528-0.262-1.151-0.415-1.808-0.415-0.012 0-0.024 0-0.036 0h0.002c-0.009-0-0.019-0-0.030-0-0.609 0-1.189 0.122-1.718 0.343l0.029-0.011c-1.092 0.44-1.971 1.221-2.523 2.209l-0.013 0.025c-0.265 0.48-0.441 1.044-0.491 1.644l-0.001 0.015h4.741v1.327h-4.735c0.049 0.615 0.226 1.18 0.503 1.681l-0.011-0.021c0.565 1.013 1.444 1.794 2.503 2.222l0.033 0.012c0.499 0.21 1.080 0.332 1.689 0.332 0.008 0 0.017-0 0.025-0h-0.001z"></path>
</symbol>
<symbol id="icon-icon03" viewBox="0 0 32 32">
<title>icon03</title>
<path fill="#1abc9c" style="fill: var(--color3, #1abc9c)" d="M16 0c0.016-0 0.034-0 0.053-0 4.407 0 8.398 1.78 11.294 4.66l-0.001-0.001c2.916 2.899 4.72 6.912 4.72 11.347 0 6.61-4.008 12.283-9.726 14.723l-0.104 0.040c-1.815 0.782-3.927 1.237-6.146 1.237-0.032 0-0.064-0-0.096-0l0.005 0h-0.066c-0.037 0-0.080 0.001-0.124 0.001-2.196 0-4.286-0.455-6.18-1.276l0.101 0.039c-1.97-0.849-3.652-2.002-5.072-3.418l0 0c-2.88-2.895-4.659-6.887-4.659-11.294 0-0.020 0-0.041 0-0.061v0.003c-0-0.024-0-0.053-0-0.081 0-6.56 3.964-12.194 9.628-14.637l0.103-0.040c1.791-0.785 3.879-1.242 6.073-1.242 0.046 0 0.091 0 0.137 0.001l-0.007-0zM8.242 15.324c0-0.599 0-1.187 0.077-1.764s0.099-1.165 0.148-1.769 0.198-1.099 0.302-1.648c0.114-0.632 0.243-1.162 0.401-1.681l-0.027 0.104c-0.489-0.125-0.89-0.254-1.28-0.405l0.077 0.026c-0.401-0.148-0.775-0.297-1.126-0.451-0.448-0.171-0.81-0.336-1.161-0.518l0.062 0.029-1.126-0.549c-0.415 0.535-0.841 1.144-1.236 1.774l-0.055 0.094c-0.369 0.595-0.719 1.285-1.011 2.006l-0.033 0.093c-0.272 0.65-0.505 1.417-0.663 2.212l-0.013 0.079c-0.137 0.674-0.245 1.486-0.299 2.312l-0.003 0.056zM8.242 16.676h-6.967c0.057 0.882 0.164 1.694 0.322 2.487l-0.020-0.119c0.171 0.874 0.404 1.641 0.706 2.374l-0.030-0.082c0.325 0.816 0.675 1.509 1.079 2.165l-0.035-0.061c0.396 0.648 0.824 1.275 1.275 1.874l1.126-0.549c0.289-0.153 0.651-0.318 1.023-0.463l0.076-0.026c0.352-0.148 0.725-0.302 1.126-0.451 0.314-0.123 0.715-0.251 1.126-0.357l0.078-0.017c-0.121-0.421-0.238-0.958-0.324-1.504l-0.011-0.084c-0.104-0.549-0.203-1.099-0.302-1.648s-0.099-1.192-0.148-1.769-0.099-1.165-0.099-1.769zM12.544 1.648c-0.812 0.227-1.473 0.458-2.117 0.722l0.128-0.046c-0.721 0.291-1.326 0.593-1.905 0.936l0.064-0.035c-0.644 0.331-1.199 0.696-1.71 1.113l0.018-0.014c-0.522 0.429-1.038 0.89-1.538 1.39 0.352 0.148 0.676 0.302 0.978 0.451s0.626 0.302 0.978 0.451c0.262 0.119 0.597 0.245 0.94 0.354l0.071 0.019c0.324 0.104 0.665 0.231 1.016 0.379 0.198-0.604 0.412-1.176 0.637-1.731s0.462-1.099 0.714-1.577 0.511-0.874 0.786-1.275c0.291-0.425 0.6-0.797 0.94-1.138l-0 0zM5.495 26.291c0.478 0.479 0.979 0.933 1.503 1.362l0.036 0.028c0.493 0.408 1.048 0.773 1.641 1.075l0.051 0.024c0.513 0.307 1.115 0.606 1.741 0.858l0.089 0.032c0.516 0.218 1.177 0.448 1.854 0.643l0.135 0.033c-0.341-0.33-0.65-0.689-0.924-1.075l-0.016-0.024c-0.25-0.355-0.51-0.771-0.748-1.201l-0.037-0.073c-0.253-0.5-0.489-1.049-0.714-1.599s-0.44-1.126-0.637-1.731c-0.352 0.104-0.692 0.214-1.016 0.341s-0.665 0.264-1.011 0.412-0.692 0.302-1.016 0.451-0.637 0.297-0.929 0.445zM15.324 9.538c-0.401 0-0.813 0-1.242-0.038s-0.835-0.060-1.236-0.11c-0.489-0.054-0.924-0.133-1.348-0.24l0.068 0.014c-0.326-0.087-0.732-0.166-1.146-0.22l-0.051-0.005c-0.104 0.451-0.203 0.929-0.302 1.429-0.091 0.432-0.17 0.97-0.221 1.517l-0.004 0.059c-0.099 0.549-0.176 1.099-0.225 1.687s-0.077 1.143-0.077 1.692h5.786zM9.538 16.681c0 0.549 0.027 1.099 0.077 1.692s0.126 1.137 0.225 1.687c0.055 0.609 0.135 1.149 0.242 1.68l-0.016-0.098c0.099 0.5 0.198 0.973 0.302 1.423 0.401-0.099 0.797-0.187 1.198-0.264s0.83-0.137 1.28-0.187 0.813-0.088 1.236-0.11 0.841-0.038 1.242-0.038v-5.791zM15.324 1.352c-0.481 0.139-0.897 0.372-1.245 0.679l0.004-0.003c-0.464 0.398-0.871 0.842-1.221 1.329l-0.015 0.022c-0.422 0.536-0.81 1.139-1.136 1.778l-0.029 0.062c-0.363 0.703-0.684 1.525-0.919 2.382l-0.021 0.090c0.352 0.099 0.714 0.187 1.099 0.258s0.764 0.143 1.165 0.192 0.802 0.088 1.203 0.11 0.775 0.038 1.126 0.038zM15.324 23.736c-0.352 0-0.725 0-1.126 0.038s-0.802 0.066-1.203 0.115-0.786 0.11-1.165 0.187-0.736 0.165-1.099 0.264c0.259 0.936 0.579 1.746 0.974 2.512l-0.034-0.073c0.355 0.702 0.742 1.305 1.183 1.864l-0.018-0.024c0.365 0.51 0.772 0.953 1.226 1.343l0.010 0.008c0.345 0.304 0.761 0.537 1.219 0.67l0.023 0.006zM16.676 8.242c0.352 0 0.725 0 1.099-0.038s0.802-0.060 1.203-0.11 0.714-0.115 1.099-0.192 0.802-0.137 1.181-0.209c-0.338-0.965-0.669-1.747-1.039-2.506l0.061 0.138c-0.341-0.737-0.708-1.366-1.125-1.956l0.026 0.039c-0.356-0.502-0.764-0.934-1.224-1.304l-0.012-0.010c-0.357-0.284-0.767-0.524-1.209-0.702l-0.033-0.012zM16.676 9.516v5.808h5.709c0-0.549 0-1.099-0.071-1.692s-0.104-1.137-0.154-1.687c-0.055-0.607-0.134-1.145-0.242-1.674l0.016 0.097c-0.112-0.568-0.242-1.047-0.398-1.514l0.025 0.085q-0.604 0.148-1.203 0.264c-0.401 0.071-0.802 0.137-1.203 0.187s-0.813 0.088-1.236 0.11-0.841 0.038-1.242 0.038zM16.676 22.44c0.401 0 0.813 0 1.242 0.038s0.835 0.060 1.236 0.11 0.802 0.115 1.203 0.187 0.802 0.165 1.203 0.264c0.132-0.38 0.261-0.858 0.361-1.346l0.013-0.077c0.091-0.433 0.17-0.974 0.221-1.523l0.004-0.060c0.049-0.549 0.099-1.099 0.154-1.687s0.071-1.137 0.071-1.692h-5.709zM16.676 30.626c0.475-0.188 0.885-0.428 1.251-0.722l-0.009 0.007c0.473-0.379 0.881-0.812 1.223-1.294l0.013-0.020c0.395-0.553 0.761-1.182 1.068-1.844l0.030-0.073c0.31-0.62 0.64-1.4 0.927-2.201l0.051-0.162c-0.401-0.099-0.786-0.187-1.165-0.264s-0.736-0.137-1.099-0.187-0.802-0.088-1.203-0.115-0.775-0.038-1.099-0.038zM26.516 5.709c-0.478-0.479-0.979-0.933-1.503-1.362l-0.036-0.028c-0.495-0.402-1.048-0.787-1.629-1.13l-0.064-0.035c-0.599-0.297-1.225-0.588-1.857-0.863-0.554-0.245-1.212-0.466-1.893-0.627l-0.079-0.016c0.292 0.336 0.579 0.705 0.846 1.089l0.028 0.043c0.275 0.401 0.549 0.824 0.791 1.275 0.271 0.448 0.525 0.967 0.731 1.511l0.022 0.066c0.198 0.549 0.396 1.126 0.599 1.731 0.352-0.099 0.698-0.214 1.049-0.341s0.703-0.264 1.055-0.412 0.61-0.302 0.94-0.451 0.648-0.302 1-0.451zM19.456 30.346c0.648-0.198 1.302-0.423 1.951-0.676 0.768-0.29 1.387-0.567 1.989-0.875l-0.109 0.051c0.643-0.375 1.196-0.76 1.716-1.184l-0.024 0.019c0.56-0.454 1.061-0.909 1.537-1.389l0.001-0.001c-0.352-0.148-0.687-0.302-1.011-0.451s-0.643-0.302-0.94-0.451-0.703-0.286-1.055-0.412-0.698-0.236-1.049-0.341c-0.203 0.604-0.401 1.181-0.599 1.731-0.228 0.61-0.481 1.129-0.777 1.62l0.024-0.044c-0.253 0.451-0.516 0.879-0.791 1.275-0.289 0.425-0.572 0.792-0.876 1.142l0.013-0.015zM23.665 15.324h7.060c-0.057-0.883-0.165-1.694-0.322-2.488l0.020 0.12c-0.171-0.874-0.404-1.641-0.706-2.374l0.030 0.082c-0.337-0.836-0.689-1.539-1.089-2.209l0.040 0.072c-0.415-0.699-0.837-1.301-1.301-1.867l0.021 0.026-1.099 0.549c-0.297 0.154-0.668 0.319-1.049 0.463l-0.077 0.026-1.165 0.451c-0.315 0.133-0.703 0.262-1.102 0.365l-0.063 0.014c0.099 0.5 0.214 1.027 0.341 1.577 0.106 0.454 0.199 1.015 0.259 1.587l0.005 0.061c0.049 0.604 0.099 1.192 0.148 1.769s0.049 1.176 0.049 1.775zM23.665 16.676c0 0.604 0 1.192-0.077 1.764s-0.099 1.165-0.148 1.769c-0.065 0.634-0.158 1.196-0.282 1.746l0.018-0.097c-0.126 0.549-0.242 1.099-0.341 1.577 0.461 0.115 0.849 0.243 1.225 0.395l-0.060-0.022c0.379 0.148 0.764 0.302 1.165 0.451 0.458 0.17 0.83 0.335 1.19 0.518l-0.063-0.029 1.099 0.549c0.451-0.599 0.879-1.225 1.28-1.874 0.371-0.596 0.723-1.289 1.016-2.011l0.033-0.093c0.272-0.65 0.505-1.417 0.663-2.212l0.013-0.079c0.138-0.674 0.245-1.486 0.299-2.313l0.003-0.056z"></path>
</symbol>
<symbol id="icon-icon04" viewBox="0 0 27 32">
<title>icon04</title>
<path fill="#1abc9c" style="fill: var(--color3, #1abc9c)" d="M15.865 4.755c1.721 0.277 3.265 0.841 4.653 1.646l-0.065-0.035c1.41 0.804 2.613 1.782 3.636 2.924l0.012 0.014c1 1.175 1.826 2.537 2.414 4.020l0.034 0.098c0.57 1.422 0.901 3.071 0.901 4.797 0 0.019-0 0.039-0 0.058v-0.003c0 0.033 0 0.072 0 0.111 0 1.895-0.393 3.698-1.101 5.332l0.034-0.087c-0.733 1.69-1.724 3.134-2.939 4.354l0-0c-1.232 1.223-2.694 2.215-4.317 2.904l-0.090 0.034c-1.571 0.678-3.401 1.072-5.323 1.072s-3.751-0.394-5.412-1.107l0.089 0.034c-3.318-1.413-5.911-3.99-7.311-7.207l-0.034-0.089c-0.677-1.568-1.071-3.394-1.071-5.312 0-1.761 0.332-3.444 0.937-4.991l-0.032 0.093c0.62-1.581 1.446-2.944 2.465-4.138l-0.017 0.020c1.034-1.158 2.238-2.135 3.578-2.901l0.070-0.037c1.321-0.768 2.864-1.331 4.506-1.596l0.077-0.010c-0.21-0.251-0.389-0.538-0.525-0.849l-0.009-0.023c-0.125-0.289-0.199-0.625-0.201-0.979v-0.001c0-0.003-0-0.007-0-0.011 0-0.409 0.086-0.797 0.242-1.148l-0.007 0.018c0.148-0.345 0.364-0.635 0.633-0.864l0.003-0.003c0.258-0.269 0.563-0.491 0.902-0.653l0.019-0.008c0.316-0.148 0.687-0.235 1.078-0.235 0.005 0 0.010 0 0.014 0h-0.001c0.009-0 0.020-0 0.031-0 0.389 0 0.757 0.087 1.087 0.242l-0.016-0.007c0.351 0.165 0.65 0.379 0.906 0.636l0 0c0.273 0.232 0.489 0.522 0.631 0.852l0.006 0.015c0.149 0.333 0.235 0.722 0.235 1.13 0 0.004 0 0.007-0 0.011v-0.001c0 0.003 0 0.008 0 0.012 0 0.358-0.074 0.699-0.207 1.009l0.006-0.017c-0.142 0.333-0.318 0.62-0.529 0.878l0.005-0.006zM13.711 30.849c0.041 0 0.090 0.001 0.139 0.001 1.72 0 3.355-0.361 4.835-1.010l-0.077 0.030c1.551-0.687 2.88-1.588 4.020-2.683l-0.005 0.004c1.091-1.137 1.991-2.467 2.644-3.933l0.035-0.088c0.62-1.395 0.98-3.023 0.98-4.735 0-0.057-0-0.114-0.001-0.17l0 0.009c0.001-0.046 0.001-0.1 0.001-0.155 0-1.714-0.361-3.344-1.010-4.818l0.030 0.077c-0.689-1.551-1.589-2.879-2.683-4.020l0.005 0.005c-1.136-1.087-2.465-1.984-3.928-2.634l-0.088-0.035c-1.412-0.635-3.061-1.004-4.797-1.004-0.035 0-0.070 0-0.105 0l0.005-0c-0.032-0-0.069-0-0.107-0-1.733 0-3.38 0.37-4.865 1.035l0.076-0.030c-1.553 0.687-2.883 1.588-4.025 2.683l0.005-0.005c-1.090 1.135-1.989 2.464-2.639 3.928l-0.035 0.087c-0.64 1.443-1.013 3.126-1.013 4.897s0.373 3.454 1.044 4.976l-0.031-0.079c0.683 1.553 1.583 2.884 2.678 4.025l-0.004-0.005c1.144 1.089 2.483 1.987 3.956 2.634l0.088 0.035c1.4 0.619 3.033 0.98 4.75 0.98 0.043 0 0.086-0 0.129-0.001l-0.007 0zM6.895 25.174l4.368-9.372 9.304-4.353-4.407 9.304zM11.85 17.207l-2.61 5.553 5.489-2.61zM13.711 1.136c-0.243 0.003-0.473 0.053-0.683 0.142l0.012-0.004c-0.218 0.082-0.4 0.221-0.532 0.398l-0.002 0.003c-0.18 0.135-0.318 0.316-0.399 0.526l-0.003 0.008c-0.086 0.198-0.137 0.428-0.137 0.671v0c-0 0.005-0 0.011-0 0.017 0 0.225 0.051 0.438 0.141 0.629l-0.004-0.009c0.101 0.221 0.236 0.41 0.401 0.567l0.001 0.001c0.153 0.14 0.336 0.251 0.538 0.32l0.011 0.003c0.193 0.087 0.417 0.141 0.654 0.147l0.002 0c0.247-0.002 0.48-0.056 0.691-0.151l-0.011 0.004c0.209-0.079 0.388-0.192 0.54-0.334l-0.001 0.001c0.164-0.159 0.299-0.347 0.397-0.556l0.005-0.012c0.084-0.185 0.132-0.401 0.132-0.629 0-0.003 0-0.005-0-0.008v0c-0.001-0.242-0.050-0.472-0.137-0.683l0.004 0.012c-0.085-0.217-0.223-0.397-0.399-0.532l-0.003-0.002c-0.137-0.18-0.319-0.318-0.53-0.399l-0.008-0.003c-0.197-0.081-0.426-0.127-0.665-0.127-0.005 0-0.011 0-0.016 0h0.001zM15.586 19.347l2.556-5.489-5.489 2.546z"></path>
</symbol>
<symbol id="icon-recent-icon" viewBox="0 0 32 32">
<title>recent-icon</title>
<path d="M15.987 0c0.029-0 0.063-0 0.097-0 2.208 0 4.309 0.461 6.211 1.292l-0.1-0.039c1.989 0.848 3.687 2.008 5.116 3.437l0 0c1.423 1.428 2.582 3.121 3.397 4.997l0.041 0.105c0.775 1.802 1.226 3.899 1.226 6.102 0 0.033-0 0.065-0 0.098l0-0.005c0 0.025 0 0.055 0 0.085 0 2.211-0.456 4.316-1.278 6.225l0.039-0.102c-1.655 3.874-4.679 6.898-8.449 8.513l-0.104 0.040c-1.799 0.775-3.892 1.226-6.092 1.226-0.036 0-0.073-0-0.109-0l0.006 0c-0.022 0-0.048 0-0.075 0-2.215 0-4.323-0.456-6.236-1.278l0.103 0.039c-1.981-0.855-3.674-2.014-5.103-3.438l0.001 0.001c-1.422-1.422-2.577-3.111-3.384-4.985l-0.040-0.104c-0.792-1.802-1.253-3.903-1.253-6.111 0-0.039 0-0.077 0-0.116l-0 0.006c-0-0.023-0-0.049-0-0.076 0-2.211 0.461-4.314 1.292-6.219l-0.039 0.1c1.662-3.862 4.678-6.877 8.435-8.499l0.104-0.040c1.805-0.792 3.908-1.252 6.119-1.252 0.027 0 0.053 0 0.080 0l-0.004-0zM15.987 30.641c0.023 0 0.049 0 0.076 0 2.035 0 3.969-0.432 5.715-1.208l-0.090 0.036c1.811-0.788 3.364-1.828 4.696-3.097l-0.007 0.006c1.277-1.321 2.329-2.869 3.090-4.575l0.040-0.101c0.741-1.681 1.172-3.641 1.172-5.702s-0.431-4.021-1.208-5.795l0.036 0.093c-0.805-1.806-1.857-3.353-3.136-4.681l0.005 0.005c-1.319-1.277-2.867-2.326-4.576-3.078l-0.1-0.039c-1.643-0.741-3.562-1.173-5.582-1.173-0.047 0-0.094 0-0.14 0.001l0.007-0c-0.033-0-0.073-0-0.112-0-2.023 0-3.944 0.432-5.678 1.208l0.088-0.035c-1.803 0.796-3.346 1.845-4.667 3.122l0.004-0.004c-1.274 1.32-2.323 2.868-3.078 4.575l-0.040 0.101c-0.741 1.646-1.173 3.567-1.173 5.59 0 0.035 0 0.069 0 0.104l-0-0.005c-0 0.036-0.001 0.078-0.001 0.12 0 2.020 0.432 3.939 1.208 5.67l-0.035-0.088c0.79 1.814 1.839 3.367 3.122 4.694l-0.004-0.004c1.323 1.273 2.87 2.326 4.574 3.090l0.102 0.041c1.636 0.716 3.542 1.133 5.545 1.133 0.050 0 0.101-0 0.151-0.001l-0.008 0zM15.987 5.329h1.332v13.322h-9.326v-1.332h7.993z"></path>
</symbol>
<symbol id="icon-submit" viewBox="0 0 56 32">
<title>submit</title>
<path fill="#fff" style="fill: var(--color2, #fff)" d="M0 0l28.12 16-28.12 16zM2 3.41v25.181l22.096-12.59zM28.12 0l28.12 16-28.12 16zM30.12 3.41v25.181l22-12.59z"></path>
</symbol>
</defs>
</svg>
