<svg xmlns="http://www.w3.org/2000/svg" viewBox="0 0 27.42 26.02"><defs><style>.a{fill:#fff;}</style></defs><title>Asset 6</title><path class="a" d="M27.42,7l-4,12H9.32l.47,2H20.51a2.17,2.17,0,0,1,1,.2,2.75,2.75,0,0,1,.8.56,2.26,2.26,0,0,1,.52.79,2.68,2.68,0,0,1,0,1.93,2.18,2.18,0,0,1-.52.79,2.75,2.75,0,0,1-.8.56,2.18,2.18,0,0,1-1,.21,2.42,2.42,0,0,1-1-.21,2,2,0,0,1-.76-.56,2.77,2.77,0,0,1-.56-.79,2.36,2.36,0,0,1-.06-1.75,2.52,2.52,0,0,1,.39-.68h-7a2.52,2.52,0,0,1,.39.68,2.36,2.36,0,0,1-.06,1.75,2.77,2.77,0,0,1-.56.79,2.71,2.71,0,0,1-.79.56,2.22,2.22,0,0,1-1,.21,2.18,2.18,0,0,1-1-.21,2.75,2.75,0,0,1-.8-.56,2.55,2.55,0,0,1-.55-.79,2.18,2.18,0,0,1-.21-1,2.09,2.09,0,0,1,.15-.79A3.7,3.7,0,0,1,7.5,22a2.5,2.5,0,0,1,.59-.52,2.74,2.74,0,0,1,.7-.36L3.93,1H0V0H4.69l1.7,7ZM9.08,18H22.62L26,8H6.68ZM11,23.5a1.34,1.34,0,0,0-.12-.56,1.82,1.82,0,0,0-.35-.5,1.45,1.45,0,0,0-.47-.29A1.56,1.56,0,0,0,9.49,22a1.3,1.3,0,0,0-.55.12,2.25,2.25,0,0,0-.5.29,2.55,2.55,0,0,0-.3.5A1.51,1.51,0,0,0,8,23.5a1.7,1.7,0,0,0,.11.58,1.36,1.36,0,0,0,.3.47,1.52,1.52,0,0,0,.5.35,1.3,1.3,0,0,0,.55.12,1.56,1.56,0,0,0,.59-.12,1.1,1.1,0,0,0,.47-.35,1.12,1.12,0,0,0,.35-.47A1.51,1.51,0,0,0,11,23.5Zm11,0a1.51,1.51,0,0,0-.11-.56,2.55,2.55,0,0,0-.3-.5,2.25,2.25,0,0,0-.5-.29,1.3,1.3,0,0,0-.55-.12,1.49,1.49,0,0,0-.62.12,1.53,1.53,0,0,0-.44.29,1.82,1.82,0,0,0-.35.5,1.34,1.34,0,0,0-.12.56,1.51,1.51,0,0,0,.12.58,1.12,1.12,0,0,0,.35.47,1.14,1.14,0,0,0,.44.35,1.49,1.49,0,0,0,.62.12,1.3,1.3,0,0,0,.55-.12,1.52,1.52,0,0,0,.5-.35,1.36,1.36,0,0,0,.3-.47A1.7,1.7,0,0,0,22,23.5Z"/></svg>