<svg xmlns="http://www.w3.org/2000/svg" viewBox="0 0 24.96 22.38"><defs><style>.a{fill:#fff;}</style></defs><title>favorit-icon</title><path class="a" d="M18,0a6.69,6.69,0,0,1,2.72.56,7.31,7.31,0,0,1,2.2,1.49,6.44,6.44,0,0,1,1.52,2.2A6.84,6.84,0,0,1,25,7a6.76,6.76,0,0,1-.15,1.41,8.4,8.4,0,0,1-.38,1.35,11.64,11.64,0,0,1-.67,1.17,5.05,5.05,0,0,1-.91,1L12.48,22.38,1.93,11.78a6.74,6.74,0,0,1-.82-1,9.71,9.71,0,0,1-.64-1.2A5.56,5.56,0,0,1,.12,8.29,7.53,7.53,0,0,1,0,7,7,7,0,0,1,.53,4.25a6.44,6.44,0,0,1,1.52-2.2A7.31,7.31,0,0,1,4.25.56,6.69,6.69,0,0,1,7,0,7.16,7.16,0,0,1,8.58.18a6.34,6.34,0,0,1,1.5.52,7.62,7.62,0,0,1,1.32.85A5.9,5.9,0,0,1,12.48,2.7a5.9,5.9,0,0,1,1.08-1.15A7.62,7.62,0,0,1,14.88.7a6.34,6.34,0,0,1,1.5-.52A7.16,7.16,0,0,1,18,0Zm0,1a5.87,5.87,0,0,0-1.79.26A6.14,6.14,0,0,0,14.65,2a7.16,7.16,0,0,0-1.26,1.2,6,6,0,0,0-.91,1.5,6,6,0,0,0-.91-1.5A7.16,7.16,0,0,0,10.31,2a6.14,6.14,0,0,0-1.55-.73A5.87,5.87,0,0,0,7,1a5.78,5.78,0,0,0-2.31.46A6.43,6.43,0,0,0,2.75,2.75,6.43,6.43,0,0,0,1.46,4.66,5.78,5.78,0,0,0,1,7a5.79,5.79,0,0,0,.11,1.17,8.69,8.69,0,0,0,.3,1.12,6,6,0,0,0,.55,1,5.2,5.2,0,0,0,.68.82L12.48,21l9.67-9.73a8,8,0,0,0,.76-.88,5.51,5.51,0,0,0,.59-1,7.87,7.87,0,0,0,.35-1.18A6.12,6.12,0,0,0,24,7a5.78,5.78,0,0,0-.46-2.31,6.43,6.43,0,0,0-1.29-1.91A6.43,6.43,0,0,0,20.3,1.46,5.78,5.78,0,0,0,18,1Z"/></svg>