<svg xmlns="http://www.w3.org/2000/svg" viewBox="0 0 24.02 24.02"><defs><style>.a{fill:#fff;}</style></defs><title>recent-icon</title><path class="a" d="M12,0a11.66,11.66,0,0,1,4.66.94,12,12,0,0,1,3.84,2.58,12.19,12.19,0,0,1,2.58,3.83A11.86,11.86,0,0,1,24,12a11.82,11.82,0,0,1-.93,4.66,12,12,0,0,1-6.42,6.42A11.82,11.82,0,0,1,12,24a11.86,11.86,0,0,1-4.66-.93,12.19,12.19,0,0,1-3.83-2.58A12,12,0,0,1,.94,16.67,11.66,11.66,0,0,1,0,12,11.69,11.69,0,0,1,.94,7.35,12.06,12.06,0,0,1,7.35.94,11.69,11.69,0,0,1,12,0Zm0,23a10.57,10.57,0,0,0,4.28-.88A11.94,11.94,0,0,0,19.8,19.8a11.94,11.94,0,0,0,2.35-3.51,10.85,10.85,0,0,0,0-8.56A12.07,12.07,0,0,0,19.8,4.22a11.72,11.72,0,0,0-3.51-2.34A10.41,10.41,0,0,0,12,1a10.44,10.44,0,0,0-4.28.88A11.85,11.85,0,0,0,4.22,4.22,11.85,11.85,0,0,0,1.88,7.73,10.44,10.44,0,0,0,1,12a10.41,10.41,0,0,0,.88,4.28A11.72,11.72,0,0,0,4.22,19.8a12.07,12.07,0,0,0,3.51,2.35A10.61,10.61,0,0,0,12,23ZM12,4h1V14H6V13h6Z"/></svg>