<svg xmlns="http://www.w3.org/2000/svg" viewBox="0 0 16.03 17.97"><path d="M11.13 17.6a12 12 0 01-2.07-1.12 17.41 17.41 0 01-2.36-1.89 18.31 18.31 0 01-2.36-2.72C3.61 10.89 3 10 2.42 9.14A19.37 19.37 0 011.09 6.8a13.13 13.13 0 01-.82-2A5.58 5.58 0 010 3.24a2.47 2.47 0 01.18-1 3 3 0 01.41-.75A5.82 5.82 0 011.13 1L1.6.66l.12-.07A2.53 2.53 0 012.79.12 5.24 5.24 0 013.67 0a1.06 1.06 0 01.71.21 1.64 1.64 0 01.35.49c.07.13.31.63.72 1.51s.63 1.38.68 1.54a1 1 0 01.1.37 1.4 1.4 0 010 .41A2.43 2.43 0 016 5a1.32 1.32 0 01-.32.35h-.07a5.12 5.12 0 00-.53.41.85.85 0 00-.33.57.54.54 0 000 .33A.87.87 0 005 7c.24.31.56.74 1 1.27s.84 1.08 1.29 1.62.85 1 1.23 1.49a8 8 0 00.76.82 1.24 1.24 0 00.31.23.71.71 0 00.31.08.69.69 0 00.35 0 .61.61 0 00.28-.16 4.81 4.81 0 00.51-.5 1.09 1.09 0 01.23-.16 1 1 0 01.55-.12 1.42 1.42 0 01.48.1 2.82 2.82 0 01.49.25c.45.29 1.38.92 2.82 1.88a1.28 1.28 0 01.36.58 1.26 1.26 0 01-.16 1 5.17 5.17 0 01-.49.76 5.45 5.45 0 01-.76.84 4.85 4.85 0 01-.92.66 1.93 1.93 0 01-1 .28 4.38 4.38 0 01-1.51-.32zM3 .76a2.46 2.46 0 00-.84.33L2 1.21l-.43.29a2.32 2.32 0 00-.44.5 2.29 2.29 0 00-.33.5 1.88 1.88 0 00-.14.74 4.72 4.72 0 00.28 1.51 13.29 13.29 0 00.78 1.85A24.32 24.32 0 003 8.83c.52.81 1.13 1.69 1.83 2.65a21.57 21.57 0 002.37 2.64 18.13 18.13 0 002.24 1.82 10.45 10.45 0 001.9 1 3.86 3.86 0 001.31.33 1.53 1.53 0 00.76-.23 5.06 5.06 0 00.76-.55 5.92 5.92 0 00.62-.72 3.93 3.93 0 00.43-.68.73.73 0 00.08-.55.62.62 0 00-.12-.23q-.18-.09-1.18-.78l-1.6-1.07a1.24 1.24 0 00-.31-.18 1.12 1.12 0 00-.31 0 .49.49 0 00-.24 0l-.12.07-.17.18-.37.33a1.4 1.4 0 01-.51.27 1.14 1.14 0 01-.55 0 1.64 1.64 0 01-.56-.11 1.56 1.56 0 01-.53-.36c-.13-.13-.39-.42-.78-.89l-1.27-1.5c-.44-.57-.88-1.12-1.31-1.66s-.75-.94-1-1.23a1.7 1.7 0 01-.27-.56 1.78 1.78 0 010-.61 1.52 1.52 0 01.18-.47 2.47 2.47 0 01.29-.39A1.58 1.58 0 014.9 5l.33-.24h.08a.57.57 0 00.24-.45 1.14 1.14 0 000-.34c0-.13-.28-.62-.67-1.48S4.22 1.13 4.14 1A.58.58 0 004 .74a.46.46 0 00-.33-.08 4.73 4.73 0 00-.67.1z" fill="#fefefe"/></svg>