<svg xmlns="http://www.w3.org/2000/svg" viewBox="0 0 58.24 58.24"><defs><style>.cls-1{fill:#1abc9c;}</style></defs><title>icon03</title><g id="Layer_2" data-name="Layer 2"><g id="Layer_1-2" data-name="Layer 1"><path class="cls-1" d="M29.12,0A29.15,29.15,0,0,1,49.77,8.48,29.12,29.12,0,0,1,40.47,56a28.92,28.92,0,0,1-11.35,2.25H29A28.32,28.32,0,0,1,17.71,56a29.28,29.28,0,0,1-9.23-6.22A29.15,29.15,0,0,1,0,29.12,29,29,0,0,1,17.71,2.26,28.15,28.15,0,0,1,29,0ZM15,27.89c0-1.09,0-2.16.14-3.21s.18-2.12.27-3.22.36-2,.55-3a26.78,26.78,0,0,1,.68-2.87,20.49,20.49,0,0,1-2.19-.69c-.73-.27-1.41-.54-2.05-.82a20.38,20.38,0,0,1-2-.89l-2.05-1A41,41,0,0,0,6,15.59,25.25,25.25,0,0,0,4.1,19.41a22.56,22.56,0,0,0-1.23,4.17,34.31,34.31,0,0,0-.55,4.31Zm0,2.46H2.32a34.07,34.07,0,0,0,.55,4.31A22.56,22.56,0,0,0,4.1,38.83,25.37,25.37,0,0,0,6,42.66c.72,1.18,1.5,2.32,2.32,3.41l2.05-1a20.38,20.38,0,0,1,2-.89c.64-.27,1.32-.55,2.05-.82a20.41,20.41,0,0,1,2.19-.68A26.78,26.78,0,0,1,16,39.79c-.19-1-.37-2-.55-3s-.18-2.17-.27-3.22S15,31.45,15,30.35ZM22.83,3a34.88,34.88,0,0,0-3.62,1.23,25.28,25.28,0,0,0-3.35,1.64,17.55,17.55,0,0,0-3.08,2c-.95.78-1.89,1.62-2.8,2.53.64.27,1.23.55,1.78.82s1.14.55,1.78.82a18.18,18.18,0,0,0,1.84.68c.59.19,1.21.42,1.85.69.36-1.1.75-2.14,1.16-3.15s.84-2,1.3-2.87.93-1.59,1.43-2.32A14.41,14.41,0,0,1,22.83,3ZM10,47.85a36.34,36.34,0,0,0,2.8,2.53,16.47,16.47,0,0,0,3.08,2A24.11,24.11,0,0,0,19.21,54a34.88,34.88,0,0,0,3.62,1.23,13.88,13.88,0,0,1-1.71-2,26.06,26.06,0,0,1-1.43-2.32C19.23,50,18.8,49,18.39,48s-.8-2.05-1.16-3.15c-.64.19-1.26.39-1.85.62s-1.21.48-1.84.75-1.26.55-1.85.82S10.53,47.58,10,47.85ZM27.89,17.36c-.73,0-1.48,0-2.26-.07s-1.52-.11-2.25-.2a17.91,17.91,0,0,1-2.33-.41,18.56,18.56,0,0,0-2.18-.41c-.19.82-.37,1.69-.55,2.6a27.52,27.52,0,0,0-.41,2.87c-.18,1-.32,2-.41,3.07s-.14,2.08-.14,3.08H27.89Zm-10.53,13c0,1,.05,2,.14,3.08s.23,2.07.41,3.07a27.72,27.72,0,0,0,.41,2.88c.18.91.36,1.77.55,2.59.73-.18,1.45-.34,2.18-.48s1.51-.25,2.33-.34,1.48-.16,2.25-.2,1.53-.07,2.26-.07V30.35ZM27.89,2.46a5.84,5.84,0,0,0-2.26,1.23,13.61,13.61,0,0,0-2.25,2.46A20,20,0,0,0,21.26,9.5,23.43,23.43,0,0,0,19.55,14c.64.18,1.3.34,2,.47s1.39.26,2.12.35,1.46.16,2.19.2,1.41.07,2.05.07Zm0,40.74c-.64,0-1.32,0-2.05.07s-1.46.12-2.19.21-1.43.2-2.12.34-1.34.3-2,.48a23.59,23.59,0,0,0,1.71,4.44,20,20,0,0,0,2.12,3.35,13.61,13.61,0,0,0,2.25,2.46,5.84,5.84,0,0,0,2.26,1.23ZM30.35,15c.64,0,1.32,0,2-.07s1.46-.11,2.19-.2,1.3-.21,2-.35S38,14.13,38.69,14a42.39,42.39,0,0,0-1.78-4.31,22.46,22.46,0,0,0-2-3.49,11.59,11.59,0,0,0-2.25-2.39,9,9,0,0,0-2.26-1.3Zm0,2.32V27.89H40.74c0-1,0-2-.13-3.08s-.19-2.07-.28-3.07a27.52,27.52,0,0,0-.41-2.87,21.93,21.93,0,0,0-.68-2.6q-1.1.27-2.19.48c-.73.13-1.46.25-2.19.34s-1.48.16-2.25.2S31.08,17.36,30.35,17.36Zm0,23.52c.73,0,1.48,0,2.26.07s1.52.11,2.25.2,1.46.21,2.19.34,1.46.3,2.19.48a21.76,21.76,0,0,0,.68-2.59,27.72,27.72,0,0,0,.41-2.88c.09-1,.18-2,.28-3.07s.13-2.07.13-3.08H30.35Zm0,14.9a8.7,8.7,0,0,0,2.26-1.3,11.59,11.59,0,0,0,2.25-2.39,21.56,21.56,0,0,0,2-3.49,42.19,42.19,0,0,0,1.78-4.3c-.73-.18-1.43-.34-2.12-.48s-1.34-.25-2-.34-1.46-.16-2.19-.21-1.41-.07-2-.07ZM48.26,10.39a36.54,36.54,0,0,0-2.8-2.53,25,25,0,0,0-3.08-2.12C41.29,5.2,40.15,4.67,39,4.17A21.3,21.3,0,0,0,35.41,3,23.55,23.55,0,0,1,37,5.06c.5.73,1,1.5,1.44,2.32a17.58,17.58,0,0,1,1.37,2.87c.36,1,.72,2.05,1.09,3.15.64-.18,1.27-.39,1.91-.62s1.28-.48,1.92-.75,1.11-.55,1.71-.82S47.62,10.66,48.26,10.39ZM35.41,55.23c1.18-.36,2.37-.77,3.55-1.23a35.31,35.31,0,0,0,3.42-1.5,24,24,0,0,0,3.08-2.12,34.57,34.57,0,0,0,2.8-2.53c-.64-.27-1.25-.55-1.84-.82s-1.17-.55-1.71-.82-1.28-.52-1.92-.75-1.27-.43-1.91-.62c-.37,1.1-.73,2.15-1.09,3.15a17.58,17.58,0,0,1-1.37,2.87c-.46.82-.94,1.6-1.44,2.32A22.13,22.13,0,0,1,35.41,55.23Zm7.66-27.34H55.92a34.31,34.31,0,0,0-.55-4.31,22.56,22.56,0,0,0-1.23-4.17,28.64,28.64,0,0,0-1.91-3.89,27.07,27.07,0,0,0-2.33-3.35l-2,1a20.38,20.38,0,0,1-2.05.89l-2.12.82a16.41,16.41,0,0,1-2.12.69c.18.91.39,1.87.62,2.87a26,26,0,0,1,.48,3c.09,1.1.18,2.17.27,3.22S43.07,26.8,43.07,27.89Zm0,2.46c0,1.1,0,2.17-.14,3.21s-.18,2.12-.27,3.22a26.51,26.51,0,0,1-.48,3c-.23,1-.44,2-.62,2.87a16.38,16.38,0,0,1,2.12.68c.69.27,1.39.55,2.12.82a20.38,20.38,0,0,1,2.05.89l2,1c.82-1.09,1.6-2.23,2.33-3.41a25.33,25.33,0,0,0,1.91-3.83,22.56,22.56,0,0,0,1.23-4.17,34.07,34.07,0,0,0,.55-4.31Z"/></g></g></svg>