<svg xmlns="http://www.w3.org/2000/svg" viewBox="0 0 56.05 65.35"><defs><style>.cls-1{fill:#1abc9c;}</style></defs><title>icon04</title><g id="Layer_2" data-name="Layer 2"><g id="Layer_1-2" data-name="Layer 1"><path class="cls-1" d="M32.4,9.71A27.52,27.52,0,0,1,41.77,13a29.24,29.24,0,0,1,7.45,6,29.54,29.54,0,0,1,5,8.41,27,27,0,0,1,1.84,9.91,27.4,27.4,0,0,1-2.18,10.94,28.46,28.46,0,0,1-6,8.89,28.08,28.08,0,0,1-9,6,28.07,28.07,0,0,1-21.74,0,28.09,28.09,0,0,1-15-14.9,28,28,0,0,1-.34-20.85,29.31,29.31,0,0,1,5-8.41,29.06,29.06,0,0,1,7.45-6,27.47,27.47,0,0,1,9.36-3.28,7.28,7.28,0,0,1-1.09-1.78,5.21,5.21,0,0,1-.41-2,5.79,5.79,0,0,1,.48-2.33,4.72,4.72,0,0,1,1.3-1.77A6.35,6.35,0,0,1,25.77.48,5.29,5.29,0,0,1,28,0a5.22,5.22,0,0,1,2.25.48,6.39,6.39,0,0,1,1.85,1.3,4.72,4.72,0,0,1,1.3,1.77,5.79,5.79,0,0,1,.48,2.33,5.21,5.21,0,0,1-.41,2.05A7.32,7.32,0,0,1,32.4,9.71ZM28,63A24.58,24.58,0,0,0,38,61a28.08,28.08,0,0,0,8.2-5.47,28.13,28.13,0,0,0,5.47-8.21,24.35,24.35,0,0,0,2-10,24.42,24.42,0,0,0-2-10,28.22,28.22,0,0,0-5.47-8.2A28.08,28.08,0,0,0,38,13.67a24.42,24.42,0,0,0-10-2.05,24.35,24.35,0,0,0-10,2.05,28.13,28.13,0,0,0-8.21,5.47,28,28,0,0,0-5.46,8.2,25.2,25.2,0,0,0,0,20,27.91,27.91,0,0,0,5.46,8.21A28.13,28.13,0,0,0,18.05,61,24.51,24.51,0,0,0,28,63ZM14.08,51.41,23,32.27l19-8.89-9,19ZM24.2,35.14,18.87,46.48l11.21-5.33ZM28,2.32a3.73,3.73,0,0,0-1.37.28,2.38,2.38,0,0,0-1.09.82,2.43,2.43,0,0,0-.82,1.09,3.53,3.53,0,0,0-.28,1.37,3,3,0,0,0,.28,1.3,3.69,3.69,0,0,0,.82,1.16A3.13,3.13,0,0,0,26.66,9,3.53,3.53,0,0,0,28,9.3,3.49,3.49,0,0,0,29.39,9a3.28,3.28,0,0,0,1.1-.68,3.85,3.85,0,0,0,.82-1.16,3.19,3.19,0,0,0,.27-1.3,3.71,3.71,0,0,0-.27-1.37,2.51,2.51,0,0,0-.82-1.09,2.46,2.46,0,0,0-1.1-.82A3.68,3.68,0,0,0,28,2.32Zm3.83,37.19L37.05,28.3,25.84,33.5Z"/></g></g></svg>